# MagicaVoxel @ Ephtracy

# group
o 

# material
mtllib Animal_Bear.mtl
usemtl palette

# normals
vn -1 0 0
vn 1 0 0
vn 0 0 1
vn 0 0 -1
vn 0 -1 0
vn 0 1 0

# texcoords
vt 0.00195313 0.5
vt 0.224609 0.5
vt 0.962891 0.5
vt 0.990234 0.5
vt 0.994141 0.5

# verts
v -1.1 0.3 0.8
v -1.1 0.3 -1.2
v -1.1 1.6 0.8
v -1.1 1.6 -1.2
v -1 1.6 0.7
v -1 1.6 -1.1
v -1 2.4 0.7
v -1 2.4 -1.1
v -0.9 2.4 0.4
v -0.9 2.4 1.19209e-007
v -0.9 2.7 0.4
v -0.9 2.7 1.19209e-007
v -0.8 0 0.5
v -0.8 0 0.1
v -0.8 0 -0.5
v -0.8 0 -0.9
v -0.8 0.1 0.5
v -0.8 0.1 0.1
v -0.8 0.1 -0.5
v -0.8 0.1 -0.9
v -0.8 0.3 0.5
v -0.8 0.3 0.1
v -0.8 0.3 -0.5
v -0.8 0.3 -0.9
v -0.8 2.7 0.4
v -0.8 2.7 1.19209e-007
v -0.8 2.8 0.4
v -0.8 2.8 1.19209e-007
v -0.7 1.8 0.8
v -0.7 1.8 0.7
v -0.7 2.2 0.8
v -0.7 2.2 0.7
v -0.5 0.7 1.1
v -0.5 0.7 0.8
v -0.5 1 1.1
v -0.5 1 0.9
v -0.5 1.4 1.3
v -0.5 1.4 0.9
v -0.5 1.6 0.8
v -0.5 1.6 0.7
v -0.5 1.8 1.3
v -0.5 1.8 0.8
v -0.5 1.8 0.7
v -0.5 2.6 0.4
v -0.5 2.6 0.3
v -0.5 2.7 0.4
v -0.5 2.7 0.3
v -0.4 2.4 0.4
v -0.4 2.4 0.3
v -0.4 2.6 0.4
v -0.4 2.6 0.3
v -0.3 1 1
v -0.3 1 0.9
v -0.3 1.1 1
v -0.3 1.1 0.9
v -0.2 1.3 -1.2
v -0.2 1.3 -1.4
v -0.2 1.6 -1.2
v -0.2 1.6 -1.4
v 0.1 1 1
v 0.1 1 0.9
v 0.1 1.1 1
v 0.1 1.1 0.9
v 0.2 1.8 0.8
v 0.2 1.8 0.7
v 0.2 2.2 0.8
v 0.2 2.2 0.7
v 0.3 0 0.5
v 0.3 0 0.1
v 0.3 0 -0.5
v 0.3 0 -0.9
v 0.3 0.1 0.5
v 0.3 0.1 0.1
v 0.3 0.1 -0.5
v 0.3 0.1 -0.9
v 0.3 0.3 0.5
v 0.3 0.3 0.1
v 0.3 0.3 -0.5
v 0.3 0.3 -0.9
v 0.3 2.4 0.4
v 0.3 2.4 1.19209e-007
v 0.3 2.7 0.4
v 0.3 2.7 1.19209e-007
v 0.4 1 0.9
v 0.4 1 0.8
v 0.4 1.4 0.9
v 0.4 1.4 0.8
v 0.4 2.7 0.4
v 0.4 2.7 1.19209e-007
v 0.4 2.8 0.4
v 0.4 2.8 1.19209e-007
v 0.7 2.6 0.4
v 0.7 2.6 0.3
v 0.7 2.7 0.4
v 0.7 2.7 0.3
v 0.8 2.4 0.4
v 0.8 2.4 0.3
v 0.8 2.6 0.4
v 0.8 2.6 0.3
v -0.8 2.4 0.4
v -0.8 2.4 0.3
v -0.8 2.6 0.4
v -0.8 2.6 0.3
v -0.7 2.6 0.4
v -0.7 2.6 0.3
v -0.7 2.7 0.4
v -0.7 2.7 0.3
v -0.4 1 0.9
v -0.4 1 0.8
v -0.4 1.4 0.9
v -0.4 1.4 0.8
v -0.4 2.7 0.4
v -0.4 2.7 1.19209e-007
v -0.4 2.8 0.4
v -0.4 2.8 1.19209e-007
v -0.3 0 0.5
v -0.3 0 0.1
v -0.3 0 -0.5
v -0.3 0 -0.9
v -0.3 0.1 0.5
v -0.3 0.1 0.1
v -0.3 0.1 -0.5
v -0.3 0.1 -0.9
v -0.3 0.3 0.5
v -0.3 0.3 0.1
v -0.3 0.3 -0.5
v -0.3 0.3 -0.9
v -0.3 2.4 0.4
v -0.3 2.4 1.19209e-007
v -0.3 2.7 0.4
v -0.3 2.7 1.19209e-007
v -0.2 1.8 0.8
v -0.2 1.8 0.7
v -0.2 2.2 0.8
v -0.2 2.2 0.7
v -0.1 1 1
v -0.1 1 0.9
v -0.1 1.1 1
v -0.1 1.1 0.9
v 0.2 1.3 -1.2
v 0.2 1.3 -1.4
v 0.2 1.6 -1.2
v 0.2 1.6 -1.4
v 0.3 1 1
v 0.3 1 0.9
v 0.3 1.1 1
v 0.3 1.1 0.9
v 0.4 2.4 0.4
v 0.4 2.4 0.3
v 0.4 2.6 0.4
v 0.4 2.6 0.3
v 0.5 0.7 1.1
v 0.5 0.7 0.8
v 0.5 1 1.1
v 0.5 1 0.9
v 0.5 1.4 1.3
v 0.5 1.4 0.9
v 0.5 1.6 0.8
v 0.5 1.6 0.7
v 0.5 1.8 1.3
v 0.5 1.8 0.8
v 0.5 1.8 0.7
v 0.5 2.6 0.4
v 0.5 2.6 0.3
v 0.5 2.7 0.4
v 0.5 2.7 0.3
v 0.7 1.8 0.8
v 0.7 1.8 0.7
v 0.7 2.2 0.8
v 0.7 2.2 0.7
v 0.8 0 0.5
v 0.8 0 0.1
v 0.8 0 -0.5
v 0.8 0 -0.9
v 0.8 0.1 0.5
v 0.8 0.1 0.1
v 0.8 0.1 -0.5
v 0.8 0.1 -0.9
v 0.8 0.3 0.5
v 0.8 0.3 0.1
v 0.8 0.3 -0.5
v 0.8 0.3 -0.9
v 0.8 2.7 0.4
v 0.8 2.7 1.19209e-007
v 0.8 2.8 0.4
v 0.8 2.8 1.19209e-007
v 0.9 2.4 0.4
v 0.9 2.4 1.19209e-007
v 0.9 2.7 0.4
v 0.9 2.7 1.19209e-007
v 1 1.6 0.7
v 1 1.6 -1.1
v 1 2.4 0.7
v 1 2.4 -1.1
v 1.1 0.3 0.8
v 1.1 0.3 -1.2
v 1.1 1.6 0.8
v 1.1 1.6 -1.2
v -0.5 1.4 1.3
v -0.5 1.8 1.3
v -0.2 1.5 1.3
v -0.2 1.8 1.3
v 0.2 1.5 1.3
v 0.2 1.8 1.3
v 0.5 1.4 1.3
v 0.5 1.8 1.3
v -0.5 0.7 1.1
v -0.5 1 1.1
v 0.5 0.7 1.1
v 0.5 1 1.1
v -0.3 1 1
v -0.3 1.1 1
v -0.1 1 1
v -0.1 1.1 1
v 0.1 1 1
v 0.1 1.1 1
v 0.3 1 1
v 0.3 1.1 1
v -0.5 1 0.9
v -0.5 1.4 0.9
v -0.4 1 0.9
v -0.4 1.4 0.9
v 0.4 1 0.9
v 0.4 1.4 0.9
v 0.5 1 0.9
v 0.5 1.4 0.9
v -1.1 0.3 0.8
v -1.1 1.6 0.8
v -0.7 1.8 0.8
v -0.7 2.2 0.8
v -0.6 1.8 0.8
v -0.6 2.1 0.8
v -0.5 0.7 0.8
v -0.5 1.6 0.8
v -0.5 1.8 0.8
v -0.4 1 0.8
v -0.4 1.4 0.8
v -0.4 2 0.8
v -0.4 2.1 0.8
v -0.3 1.8 0.8
v -0.3 2 0.8
v -0.2 1.8 0.8
v -0.2 2.2 0.8
v 0.2 1.8 0.8
v 0.2 2.2 0.8
v 0.3 1.8 0.8
v 0.3 2.1 0.8
v 0.4 1 0.8
v 0.4 1.4 0.8
v 0.5 0.7 0.8
v 0.5 1.6 0.8
v 0.5 1.8 0.8
v 0.5 2 0.8
v 0.5 2.1 0.8
v 0.6 1.8 0.8
v 0.6 2 0.8
v 0.7 1.8 0.8
v 0.7 2.2 0.8
v 1.1 0.3 0.8
v 1.1 1.6 0.8
v -1 1.6 0.7
v -1 2.4 0.7
v -0.7 1.8 0.7
v -0.7 2.2 0.7
v -0.6 1.8 0.7
v -0.5 1.6 0.7
v -0.5 1.8 0.7
v -0.2 1.8 0.7
v -0.2 2.2 0.7
v 0.2 1.8 0.7
v 0.2 2.2 0.7
v 0.5 1.6 0.7
v 0.5 1.8 0.7
v 0.6 1.8 0.7
v 0.7 1.8 0.7
v 0.7 2.2 0.7
v 1 1.6 0.7
v 1 2.4 0.7
v -0.8 0 0.5
v -0.8 0.1 0.5
v -0.8 0.3 0.5
v -0.3 0 0.5
v -0.3 0.1 0.5
v -0.3 0.3 0.5
v 0.3 0 0.5
v 0.3 0.1 0.5
v 0.3 0.3 0.5
v 0.8 0 0.5
v 0.8 0.1 0.5
v 0.8 0.3 0.5
v -0.9 2.4 0.4
v -0.9 2.7 0.4
v -0.8 2.4 0.4
v -0.8 2.6 0.4
v -0.8 2.7 0.4
v -0.8 2.8 0.4
v -0.7 2.6 0.4
v -0.7 2.7 0.4
v -0.5 2.6 0.4
v -0.5 2.7 0.4
v -0.4 2.4 0.4
v -0.4 2.6 0.4
v -0.4 2.7 0.4
v -0.4 2.8 0.4
v -0.3 2.4 0.4
v -0.3 2.7 0.4
v 0.3 2.4 0.4
v 0.3 2.7 0.4
v 0.4 2.4 0.4
v 0.4 2.6 0.4
v 0.4 2.7 0.4
v 0.4 2.8 0.4
v 0.5 2.6 0.4
v 0.5 2.7 0.4
v 0.7 2.6 0.4
v 0.7 2.7 0.4
v 0.8 2.4 0.4
v 0.8 2.6 0.4
v 0.8 2.7 0.4
v 0.8 2.8 0.4
v 0.9 2.4 0.4
v 0.9 2.7 0.4
v -0.8 2.4 0.3
v -0.8 2.6 0.3
v -0.7 2.6 0.3
v -0.7 2.7 0.3
v -0.5 2.6 0.3
v -0.5 2.7 0.3
v -0.4 2.4 0.3
v -0.4 2.6 0.3
v 0.4 2.4 0.3
v 0.4 2.6 0.3
v 0.5 2.6 0.3
v 0.5 2.7 0.3
v 0.7 2.6 0.3
v 0.7 2.7 0.3
v 0.8 2.4 0.3
v 0.8 2.6 0.3
v -0.8 0 -0.5
v -0.8 0.1 -0.5
v -0.8 0.3 -0.5
v -0.3 0 -0.5
v -0.3 0.1 -0.5
v -0.3 0.3 -0.5
v 0.3 0 -0.5
v 0.3 0.1 -0.5
v 0.3 0.3 -0.5
v 0.8 0 -0.5
v 0.8 0.1 -0.5
v 0.8 0.3 -0.5
v -0.3 1 0.9
v -0.3 1.1 0.9
v -0.1 1 0.9
v -0.1 1.1 0.9
v 0.1 1 0.9
v 0.1 1.1 0.9
v 0.3 1 0.9
v 0.3 1.1 0.9
v -0.8 0 0.1
v -0.8 0.1 0.1
v -0.8 0.3 0.1
v -0.3 0 0.1
v -0.3 0.1 0.1
v -0.3 0.3 0.1
v 0.3 0 0.1
v 0.3 0.1 0.1
v 0.3 0.3 0.1
v 0.8 0 0.1
v 0.8 0.1 0.1
v 0.8 0.3 0.1
v -0.9 2.4 1.19209e-007
v -0.9 2.7 1.19209e-007
v -0.8 2.7 1.19209e-007
v -0.8 2.8 1.19209e-007
v -0.4 2.7 1.19209e-007
v -0.4 2.8 1.19209e-007
v -0.3 2.4 1.19209e-007
v -0.3 2.7 1.19209e-007
v 0.3 2.4 1.19209e-007
v 0.3 2.7 1.19209e-007
v 0.4 2.7 1.19209e-007
v 0.4 2.8 1.19209e-007
v 0.8 2.7 1.19209e-007
v 0.8 2.8 1.19209e-007
v 0.9 2.4 1.19209e-007
v 0.9 2.7 1.19209e-007
v -0.8 0 -0.9
v -0.8 0.1 -0.9
v -0.8 0.3 -0.9
v -0.3 0 -0.9
v -0.3 0.1 -0.9
v -0.3 0.3 -0.9
v 0.3 0 -0.9
v 0.3 0.1 -0.9
v 0.3 0.3 -0.9
v 0.8 0 -0.9
v 0.8 0.1 -0.9
v 0.8 0.3 -0.9
v -1 1.6 -1.1
v -1 2.4 -1.1
v 1 1.6 -1.1
v 1 2.4 -1.1
v -1.1 0.3 -1.2
v -1.1 1.6 -1.2
v -0.2 1.3 -1.2
v -0.2 1.6 -1.2
v 0.2 1.3 -1.2
v 0.2 1.6 -1.2
v 1.1 0.3 -1.2
v 1.1 1.6 -1.2
v -0.2 1.3 -1.4
v -0.2 1.6 -1.4
v 0.2 1.3 -1.4
v 0.2 1.6 -1.4
v -0.8 0 0.5
v -0.3 0 0.5
v 0.3 0 0.5
v 0.8 0 0.5
v -0.8 0 0.1
v -0.3 0 0.1
v 0.3 0 0.1
v 0.8 0 0.1
v -0.8 0 -0.5
v -0.3 0 -0.5
v 0.3 0 -0.5
v 0.8 0 -0.5
v -0.8 0 -0.9
v -0.3 0 -0.9
v 0.3 0 -0.9
v 0.8 0 -0.9
v -1.1 0.3 0.8
v 1.1 0.3 0.8
v -0.8 0.3 0.5
v -0.3 0.3 0.5
v 0.3 0.3 0.5
v 0.8 0.3 0.5
v -0.8 0.3 0.1
v -0.3 0.3 0.1
v 0.3 0.3 0.1
v 0.8 0.3 0.1
v -0.8 0.3 -0.5
v -0.3 0.3 -0.5
v 0.3 0.3 -0.5
v 0.8 0.3 -0.5
v -0.8 0.3 -0.9
v -0.3 0.3 -0.9
v 0.3 0.3 -0.9
v 0.8 0.3 -0.9
v -1.1 0.3 -1.2
v 1.1 0.3 -1.2
v -0.5 0.7 1.1
v 0.5 0.7 1.1
v -0.5 0.7 0.8
v 0.5 0.7 0.8
v -0.2 1.3 -1.2
v 0.2 1.3 -1.2
v -0.2 1.3 -1.4
v 0.2 1.3 -1.4
v -0.5 1.4 1.3
v 0.5 1.4 1.3
v -0.5 1.4 0.9
v -0.4 1.4 0.9
v 0.4 1.4 0.9
v 0.5 1.4 0.9
v -0.4 1.4 0.8
v 0.4 1.4 0.8
v -0.7 1.8 0.8
v -0.6 1.8 0.8
v -0.5 1.8 0.8
v 0.5 1.8 0.8
v 0.6 1.8 0.8
v 0.7 1.8 0.8
v -0.7 1.8 0.7
v -0.6 1.8 0.7
v -0.5 1.8 0.7
v 0.5 1.8 0.7
v 0.6 1.8 0.7
v 0.7 1.8 0.7
v -0.8 2.6 0.4
v -0.7 2.6 0.4
v -0.5 2.6 0.4
v -0.4 2.6 0.4
v 0.4 2.6 0.4
v 0.5 2.6 0.4
v 0.7 2.6 0.4
v 0.8 2.6 0.4
v -0.8 2.6 0.3
v -0.7 2.6 0.3
v -0.5 2.6 0.3
v -0.4 2.6 0.3
v 0.4 2.6 0.3
v 0.5 2.6 0.3
v 0.7 2.6 0.3
v 0.8 2.6 0.3
v -0.7 2.7 0.4
v -0.5 2.7 0.4
v 0.5 2.7 0.4
v 0.7 2.7 0.4
v -0.7 2.7 0.3
v -0.5 2.7 0.3
v 0.5 2.7 0.3
v 0.7 2.7 0.3
v -0.5 1 1.1
v 0.5 1 1.1
v -0.3 1 1
v -0.1 1 1
v 0.1 1 1
v 0.3 1 1
v -0.5 1 0.9
v -0.4 1 0.9
v -0.3 1 0.9
v -0.1 1 0.9
v 0.1 1 0.9
v 0.3 1 0.9
v 0.4 1 0.9
v 0.5 1 0.9
v -0.4 1 0.8
v 0.4 1 0.8
v -0.3 1.1 1
v -0.1 1.1 1
v 0.1 1.1 1
v 0.3 1.1 1
v -0.3 1.1 0.9
v -0.1 1.1 0.9
v 0.1 1.1 0.9
v 0.3 1.1 0.9
v -1.1 1.6 0.8
v -0.5 1.6 0.8
v 0.5 1.6 0.8
v 1.1 1.6 0.8
v -1 1.6 0.7
v -0.5 1.6 0.7
v 0.5 1.6 0.7
v 1 1.6 0.7
v -1 1.6 -1.1
v 1 1.6 -1.1
v -1.1 1.6 -1.2
v -0.2 1.6 -1.2
v 0.2 1.6 -1.2
v 1.1 1.6 -1.2
v -0.2 1.6 -1.4
v 0.2 1.6 -1.4
v -0.5 1.8 1.3
v -0.2 1.8 1.3
v 0.2 1.8 1.3
v 0.5 1.8 1.3
v -0.2 1.8 1.1
v 0.2 1.8 1.1
v -0.5 1.8 0.8
v -0.3 1.8 0.8
v -0.2 1.8 0.8
v 0.2 1.8 0.8
v 0.3 1.8 0.8
v 0.5 1.8 0.8
v -0.2 1.8 0.7
v 0.2 1.8 0.7
v -0.7 2.2 0.8
v -0.2 2.2 0.8
v 0.2 2.2 0.8
v 0.7 2.2 0.8
v -0.7 2.2 0.7
v -0.2 2.2 0.7
v 0.2 2.2 0.7
v 0.7 2.2 0.7
v -1 2.4 0.7
v 1 2.4 0.7
v -0.9 2.4 0.4
v -0.8 2.4 0.4
v -0.4 2.4 0.4
v -0.3 2.4 0.4
v 0.3 2.4 0.4
v 0.4 2.4 0.4
v 0.8 2.4 0.4
v 0.9 2.4 0.4
v -0.8 2.4 0.3
v -0.4 2.4 0.3
v 0.4 2.4 0.3
v 0.8 2.4 0.3
v -0.9 2.4 1.19209e-007
v -0.3 2.4 1.19209e-007
v 0.3 2.4 1.19209e-007
v 0.9 2.4 1.19209e-007
v -1 2.4 -1.1
v 1 2.4 -1.1
v -0.9 2.7 0.4
v -0.8 2.7 0.4
v -0.4 2.7 0.4
v -0.3 2.7 0.4
v 0.3 2.7 0.4
v 0.4 2.7 0.4
v 0.8 2.7 0.4
v 0.9 2.7 0.4
v -0.9 2.7 1.19209e-007
v -0.8 2.7 1.19209e-007
v -0.4 2.7 1.19209e-007
v -0.3 2.7 1.19209e-007
v 0.3 2.7 1.19209e-007
v 0.4 2.7 1.19209e-007
v 0.8 2.7 1.19209e-007
v 0.9 2.7 1.19209e-007
v -0.8 2.8 0.4
v -0.4 2.8 0.4
v 0.4 2.8 0.4
v 0.8 2.8 0.4
v -0.8 2.8 1.19209e-007
v -0.4 2.8 1.19209e-007
v 0.4 2.8 1.19209e-007
v 0.8 2.8 1.19209e-007

# faces
f 3/2/1 2/2/1 1/2/1
f 4/2/1 2/2/1 3/2/1
f 7/2/1 6/2/1 5/2/1
f 8/2/1 6/2/1 7/2/1
f 11/2/1 10/2/1 9/2/1
f 12/2/1 10/2/1 11/2/1
f 17/4/1 14/4/1 13/4/1
f 18/4/1 14/4/1 17/4/1
f 19/4/1 16/4/1 15/4/1
f 20/4/1 16/4/1 19/4/1
f 21/2/1 18/2/1 17/2/1
f 22/2/1 18/2/1 21/2/1
f 23/2/1 20/2/1 19/2/1
f 24/2/1 20/2/1 23/2/1
f 27/2/1 26/2/1 25/2/1
f 28/2/1 26/2/1 27/2/1
f 31/1/1 30/1/1 29/1/1
f 32/1/1 30/1/1 31/1/1
f 35/2/1 34/2/1 33/2/1
f 36/2/1 34/2/1 35/2/1
f 38/2/1 34/2/1 36/2/1
f 39/2/1 34/2/1 38/2/1
f 39/2/1 38/2/1 37/2/1
f 41/2/1 39/2/1 37/2/1
f 41/2/1 40/2/1 39/2/1
f 42/2/1 40/2/1 41/2/1
f 43/2/1 40/2/1 42/2/1
f 46/2/1 45/2/1 44/2/1
f 47/2/1 45/2/1 46/2/1
f 50/2/1 49/2/1 48/2/1
f 51/2/1 49/2/1 50/2/1
f 54/3/1 53/3/1 52/3/1
f 55/3/1 53/3/1 54/3/1
f 58/2/1 57/2/1 56/2/1
f 59/2/1 57/2/1 58/2/1
f 62/3/1 61/3/1 60/3/1
f 63/3/1 61/3/1 62/3/1
f 66/1/1 65/1/1 64/1/1
f 67/1/1 65/1/1 66/1/1
f 72/4/1 69/4/1 68/4/1
f 73/4/1 69/4/1 72/4/1
f 74/4/1 71/4/1 70/4/1
f 75/4/1 71/4/1 74/4/1
f 76/2/1 73/2/1 72/2/1
f 77/2/1 73/2/1 76/2/1
f 78/2/1 75/2/1 74/2/1
f 79/2/1 75/2/1 78/2/1
f 82/2/1 81/2/1 80/2/1
f 83/2/1 81/2/1 82/2/1
f 86/2/1 85/2/1 84/2/1
f 87/2/1 85/2/1 86/2/1
f 90/2/1 89/2/1 88/2/1
f 91/2/1 89/2/1 90/2/1
f 94/2/1 93/2/1 92/2/1
f 95/2/1 93/2/1 94/2/1
f 98/2/1 97/2/1 96/2/1
f 99/2/1 97/2/1 98/2/1
f 100/2/2 101/2/2 102/2/2
f 102/2/2 101/2/2 103/2/2
f 104/2/2 105/2/2 106/2/2
f 106/2/2 105/2/2 107/2/2
f 108/2/2 109/2/2 110/2/2
f 110/2/2 109/2/2 111/2/2
f 112/2/2 113/2/2 114/2/2
f 114/2/2 113/2/2 115/2/2
f 116/4/2 117/4/2 120/4/2
f 120/4/2 117/4/2 121/4/2
f 118/4/2 119/4/2 122/4/2
f 122/4/2 119/4/2 123/4/2
f 120/2/2 121/2/2 124/2/2
f 124/2/2 121/2/2 125/2/2
f 122/2/2 123/2/2 126/2/2
f 126/2/2 123/2/2 127/2/2
f 128/2/2 129/2/2 130/2/2
f 130/2/2 129/2/2 131/2/2
f 132/1/2 133/1/2 134/1/2
f 134/1/2 133/1/2 135/1/2
f 136/3/2 137/3/2 138/3/2
f 138/3/2 137/3/2 139/3/2
f 140/2/2 141/2/2 142/2/2
f 142/2/2 141/2/2 143/2/2
f 144/3/2 145/3/2 146/3/2
f 146/3/2 145/3/2 147/3/2
f 148/2/2 149/2/2 150/2/2
f 150/2/2 149/2/2 151/2/2
f 152/2/2 153/2/2 154/2/2
f 154/2/2 153/2/2 155/2/2
f 155/2/2 153/2/2 157/2/2
f 157/2/2 153/2/2 158/2/2
f 156/2/2 157/2/2 158/2/2
f 156/2/2 158/2/2 160/2/2
f 158/2/2 159/2/2 160/2/2
f 160/2/2 159/2/2 161/2/2
f 161/2/2 159/2/2 162/2/2
f 163/2/2 164/2/2 165/2/2
f 165/2/2 164/2/2 166/2/2
f 167/1/2 168/1/2 169/1/2
f 169/1/2 168/1/2 170/1/2
f 171/4/2 172/4/2 175/4/2
f 175/4/2 172/4/2 176/4/2
f 173/4/2 174/4/2 177/4/2
f 177/4/2 174/4/2 178/4/2
f 175/2/2 176/2/2 179/2/2
f 179/2/2 176/2/2 180/2/2
f 177/2/2 178/2/2 181/2/2
f 181/2/2 178/2/2 182/2/2
f 183/2/2 184/2/2 185/2/2
f 185/2/2 184/2/2 186/2/2
f 187/2/2 188/2/2 189/2/2
f 189/2/2 188/2/2 190/2/2
f 191/2/2 192/2/2 193/2/2
f 193/2/2 192/2/2 194/2/2
f 195/2/2 196/2/2 197/2/2
f 197/2/2 196/2/2 198/2/2
f 201/2/3 200/2/3 199/2/3
f 202/2/3 200/2/3 201/2/3
f 203/2/3 201/2/3 199/2/3
f 203/4/3 202/4/3 201/4/3
f 204/4/3 202/4/3 203/4/3
f 205/2/3 203/2/3 199/2/3
f 205/2/3 204/2/3 203/2/3
f 206/2/3 204/2/3 205/2/3
f 209/2/3 208/2/3 207/2/3
f 210/2/3 208/2/3 209/2/3
f 213/3/3 212/3/3 211/3/3
f 214/3/3 212/3/3 213/3/3
f 217/3/3 216/3/3 215/3/3
f 218/3/3 216/3/3 217/3/3
f 221/2/3 220/2/3 219/2/3
f 222/2/3 220/2/3 221/2/3
f 225/2/3 224/2/3 223/2/3
f 226/2/3 224/2/3 225/2/3
f 231/1/3 230/1/3 229/1/3
f 232/1/3 230/1/3 231/1/3
f 233/2/3 228/2/3 227/2/3
f 234/2/3 228/2/3 233/2/3
f 235/5/3 232/5/3 231/5/3
f 238/5/3 232/5/3 235/5/3
f 239/1/3 230/1/3 232/1/3
f 239/5/3 232/5/3 238/5/3
f 240/5/3 238/5/3 235/5/3
f 241/1/3 239/1/3 238/1/3
f 241/5/3 238/5/3 240/5/3
f 242/1/3 241/1/3 240/1/3
f 243/1/3 230/1/3 239/1/3
f 243/1/3 241/1/3 242/1/3
f 243/1/3 239/1/3 241/1/3
f 246/1/3 245/1/3 244/1/3
f 247/1/3 245/1/3 246/1/3
f 248/4/3 237/4/3 236/4/3
f 249/4/3 237/4/3 248/4/3
f 250/2/3 233/2/3 227/2/3
f 252/5/3 247/5/3 246/5/3
f 253/5/3 247/5/3 252/5/3
f 254/1/3 245/1/3 247/1/3
f 254/5/3 247/5/3 253/5/3
f 255/5/3 253/5/3 252/5/3
f 256/1/3 254/1/3 253/1/3
f 256/5/3 253/5/3 255/5/3
f 257/1/3 256/1/3 255/1/3
f 258/1/3 245/1/3 254/1/3
f 258/1/3 256/1/3 257/1/3
f 258/1/3 254/1/3 256/1/3
f 259/2/3 250/2/3 227/2/3
f 259/2/3 251/2/3 250/2/3
f 260/2/3 251/2/3 259/2/3
f 263/2/3 262/2/3 261/2/3
f 264/2/3 262/2/3 263/2/3
f 265/2/3 263/2/3 261/2/3
f 266/2/3 265/2/3 261/2/3
f 267/2/3 265/2/3 266/2/3
f 269/2/3 262/2/3 264/2/3
f 270/2/3 269/2/3 268/2/3
f 271/2/3 262/2/3 269/2/3
f 271/2/3 269/2/3 270/2/3
f 274/2/3 273/2/3 272/2/3
f 275/2/3 274/2/3 272/2/3
f 276/2/3 262/2/3 271/2/3
f 277/2/3 275/2/3 272/2/3
f 277/2/3 276/2/3 275/2/3
f 278/2/3 262/2/3 276/2/3
f 278/2/3 276/2/3 277/2/3
f 282/4/3 280/4/3 279/4/3
f 283/2/3 281/2/3 280/2/3
f 283/4/3 280/4/3 282/4/3
f 284/2/3 281/2/3 283/2/3
f 288/4/3 286/4/3 285/4/3
f 289/2/3 287/2/3 286/2/3
f 289/4/3 286/4/3 288/4/3
f 290/2/3 287/2/3 289/2/3
f 293/2/3 292/2/3 291/2/3
f 294/2/3 292/2/3 293/2/3
f 295/2/3 292/2/3 294/2/3
f 297/2/3 296/2/3 295/2/3
f 297/2/3 295/2/3 294/2/3
f 298/2/3 296/2/3 297/2/3
f 300/2/3 296/2/3 298/2/3
f 302/2/3 300/2/3 299/2/3
f 303/2/3 296/2/3 300/2/3
f 303/2/3 300/2/3 302/2/3
f 304/2/3 296/2/3 303/2/3
f 305/2/3 302/2/3 301/2/3
f 305/2/3 303/2/3 302/2/3
f 306/2/3 303/2/3 305/2/3
f 309/2/3 308/2/3 307/2/3
f 310/2/3 308/2/3 309/2/3
f 311/2/3 308/2/3 310/2/3
f 313/2/3 311/2/3 310/2/3
f 313/2/3 312/2/3 311/2/3
f 314/2/3 312/2/3 313/2/3
f 316/2/3 312/2/3 314/2/3
f 318/2/3 316/2/3 315/2/3
f 319/2/3 312/2/3 316/2/3
f 319/2/3 316/2/3 318/2/3
f 320/2/3 312/2/3 319/2/3
f 321/2/3 318/2/3 317/2/3
f 321/2/3 319/2/3 318/2/3
f 322/2/3 319/2/3 321/2/3
f 325/4/3 324/4/3 323/4/3
f 327/4/3 325/4/3 323/4/3
f 327/4/3 326/4/3 325/4/3
f 328/4/3 326/4/3 327/4/3
f 329/4/3 327/4/3 323/4/3
f 330/4/3 327/4/3 329/4/3
f 333/4/3 332/4/3 331/4/3
f 335/4/3 333/4/3 331/4/3
f 335/4/3 334/4/3 333/4/3
f 336/4/3 334/4/3 335/4/3
f 337/4/3 335/4/3 331/4/3
f 338/4/3 335/4/3 337/4/3
f 342/4/3 340/4/3 339/4/3
f 343/2/3 341/2/3 340/2/3
f 343/4/3 340/4/3 342/4/3
f 344/2/3 341/2/3 343/2/3
f 348/4/3 346/4/3 345/4/3
f 349/2/3 347/2/3 346/2/3
f 349/4/3 346/4/3 348/4/3
f 350/2/3 347/2/3 349/2/3
f 351/3/4 352/3/4 353/3/4
f 353/3/4 352/3/4 354/3/4
f 355/3/4 356/3/4 357/3/4
f 357/3/4 356/3/4 358/3/4
f 359/4/4 360/4/4 362/4/4
f 360/2/4 361/2/4 363/2/4
f 362/4/4 360/4/4 363/4/4
f 363/2/4 361/2/4 364/2/4
f 365/4/4 366/4/4 368/4/4
f 366/2/4 367/2/4 369/2/4
f 368/4/4 366/4/4 369/4/4
f 369/2/4 367/2/4 370/2/4
f 371/2/4 372/2/4 373/2/4
f 371/2/4 373/2/4 375/2/4
f 373/2/4 374/2/4 375/2/4
f 375/2/4 374/2/4 376/2/4
f 371/2/4 375/2/4 377/2/4
f 377/2/4 375/2/4 378/2/4
f 379/2/4 380/2/4 381/2/4
f 379/2/4 381/2/4 383/2/4
f 381/2/4 382/2/4 383/2/4
f 383/2/4 382/2/4 384/2/4
f 379/2/4 383/2/4 385/2/4
f 385/2/4 383/2/4 386/2/4
f 387/4/4 388/4/4 390/4/4
f 388/2/4 389/2/4 391/2/4
f 390/4/4 388/4/4 391/4/4
f 391/2/4 389/2/4 392/2/4
f 393/4/4 394/4/4 396/4/4
f 394/2/4 395/2/4 397/2/4
f 396/4/4 394/4/4 397/4/4
f 397/2/4 395/2/4 398/2/4
f 399/2/4 400/2/4 401/2/4
f 401/2/4 400/2/4 402/2/4
f 403/2/4 404/2/4 405/2/4
f 405/2/4 404/2/4 406/2/4
f 403/2/4 405/2/4 407/2/4
f 403/2/4 407/2/4 409/2/4
f 407/2/4 408/2/4 409/2/4
f 409/2/4 408/2/4 410/2/4
f 411/2/4 412/2/4 413/2/4
f 413/2/4 412/2/4 414/2/4
f 419/4/5 416/4/5 415/4/5
f 420/4/5 416/4/5 419/4/5
f 421/4/5 418/4/5 417/4/5
f 422/4/5 418/4/5 421/4/5
f 427/4/5 424/4/5 423/4/5
f 428/4/5 424/4/5 427/4/5
f 429/4/5 426/4/5 425/4/5
f 430/4/5 426/4/5 429/4/5
f 433/2/5 432/2/5 431/2/5
f 434/2/5 432/2/5 433/2/5
f 435/2/5 432/2/5 434/2/5
f 436/2/5 432/2/5 435/2/5
f 437/2/5 433/2/5 431/2/5
f 438/2/5 435/2/5 434/2/5
f 439/2/5 435/2/5 438/2/5
f 440/2/5 432/2/5 436/2/5
f 441/2/5 439/2/5 438/2/5
f 441/2/5 440/2/5 439/2/5
f 441/2/5 437/2/5 431/2/5
f 441/2/5 438/2/5 437/2/5
f 442/2/5 440/2/5 441/2/5
f 443/2/5 440/2/5 442/2/5
f 444/2/5 432/2/5 440/2/5
f 444/2/5 440/2/5 443/2/5
f 445/2/5 441/2/5 431/2/5
f 446/2/5 443/2/5 442/2/5
f 447/2/5 443/2/5 446/2/5
f 448/2/5 432/2/5 444/2/5
f 449/2/5 445/2/5 431/2/5
f 449/2/5 448/2/5 447/2/5
f 449/2/5 447/2/5 446/2/5
f 449/2/5 446/2/5 445/2/5
f 450/2/5 432/2/5 448/2/5
f 450/2/5 448/2/5 449/2/5
f 453/2/5 452/2/5 451/2/5
f 454/2/5 452/2/5 453/2/5
f 457/2/5 456/2/5 455/2/5
f 458/2/5 456/2/5 457/2/5
f 461/2/5 460/2/5 459/2/5
f 462/2/5 460/2/5 461/2/5
f 463/2/5 460/2/5 462/2/5
f 464/2/5 460/2/5 463/2/5
f 465/2/5 463/2/5 462/2/5
f 466/2/5 463/2/5 465/2/5
f 473/1/5 468/1/5 467/1/5
f 474/5/5 469/5/5 468/5/5
f 474/1/5 468/1/5 473/1/5
f 475/5/5 469/5/5 474/5/5
f 476/5/5 471/5/5 470/5/5
f 477/1/5 472/1/5 471/1/5
f 477/5/5 471/5/5 476/5/5
f 478/1/5 472/1/5 477/1/5
f 487/2/5 480/2/5 479/2/5
f 488/2/5 480/2/5 487/2/5
f 489/2/5 482/2/5 481/2/5
f 490/2/5 482/2/5 489/2/5
f 491/2/5 484/2/5 483/2/5
f 492/2/5 484/2/5 491/2/5
f 493/2/5 486/2/5 485/2/5
f 494/2/5 486/2/5 493/2/5
f 499/2/5 496/2/5 495/2/5
f 500/2/5 496/2/5 499/2/5
f 501/2/5 498/2/5 497/2/5
f 502/2/5 498/2/5 501/2/5
f 503/2/6 504/2/6 505/2/6
f 505/2/6 504/2/6 506/2/6
f 506/2/6 504/2/6 507/2/6
f 507/2/6 504/2/6 508/2/6
f 503/2/6 505/2/6 509/2/6
f 509/2/6 505/2/6 510/2/6
f 510/2/6 505/2/6 511/2/6
f 506/2/6 507/2/6 512/2/6
f 512/2/6 507/2/6 513/2/6
f 508/2/6 504/2/6 514/2/6
f 514/2/6 504/2/6 515/2/6
f 515/2/6 504/2/6 516/2/6
f 512/2/6 513/2/6 517/2/6
f 510/2/6 511/2/6 517/2/6
f 514/2/6 515/2/6 517/2/6
f 513/2/6 514/2/6 517/2/6
f 511/2/6 512/2/6 517/2/6
f 517/2/6 515/2/6 518/2/6
f 519/3/6 520/3/6 523/3/6
f 523/3/6 520/3/6 524/3/6
f 521/3/6 522/3/6 525/3/6
f 525/3/6 522/3/6 526/3/6
f 527/2/6 528/2/6 531/2/6
f 531/2/6 528/2/6 532/2/6
f 529/2/6 530/2/6 533/2/6
f 533/2/6 530/2/6 534/2/6
f 527/2/6 531/2/6 535/2/6
f 534/2/6 530/2/6 536/2/6
f 527/2/6 535/2/6 537/2/6
f 535/2/6 536/2/6 537/2/6
f 537/2/6 536/2/6 538/2/6
f 538/2/6 536/2/6 539/2/6
f 536/2/6 530/2/6 540/2/6
f 539/2/6 536/2/6 540/2/6
f 538/2/6 539/2/6 541/2/6
f 541/2/6 539/2/6 542/2/6
f 543/2/6 544/2/6 547/2/6
f 544/4/6 545/4/6 547/4/6
f 545/2/6 546/2/6 548/2/6
f 547/4/6 545/4/6 548/4/6
f 543/2/6 547/2/6 549/2/6
f 547/2/6 548/2/6 549/2/6
f 549/2/6 548/2/6 550/2/6
f 550/2/6 548/2/6 551/2/6
f 548/2/6 546/2/6 552/2/6
f 551/2/6 548/2/6 552/2/6
f 552/2/6 546/2/6 553/2/6
f 553/2/6 546/2/6 554/2/6
f 551/2/6 552/2/6 555/2/6
f 555/2/6 552/2/6 556/2/6
f 557/1/6 558/1/6 561/1/6
f 561/1/6 558/1/6 562/1/6
f 559/1/6 560/1/6 563/1/6
f 563/1/6 560/1/6 564/1/6
f 565/2/6 566/2/6 567/2/6
f 567/2/6 566/2/6 568/2/6
f 568/2/6 566/2/6 569/2/6
f 569/2/6 566/2/6 570/2/6
f 570/2/6 566/2/6 571/2/6
f 571/2/6 566/2/6 572/2/6
f 572/2/6 566/2/6 573/2/6
f 573/2/6 566/2/6 574/2/6
f 568/2/6 569/2/6 575/2/6
f 575/2/6 569/2/6 576/2/6
f 572/2/6 573/2/6 577/2/6
f 577/2/6 573/2/6 578/2/6
f 565/2/6 567/2/6 579/2/6
f 570/2/6 571/2/6 580/2/6
f 580/2/6 571/2/6 581/2/6
f 574/2/6 566/2/6 582/2/6
f 580/2/6 581/2/6 583/2/6
f 581/2/6 582/2/6 583/2/6
f 579/2/6 580/2/6 583/2/6
f 565/2/6 579/2/6 583/2/6
f 582/2/6 566/2/6 584/2/6
f 583/2/6 582/2/6 584/2/6
f 585/2/6 586/2/6 593/2/6
f 593/2/6 586/2/6 594/2/6
f 587/2/6 588/2/6 595/2/6
f 595/2/6 588/2/6 596/2/6
f 589/2/6 590/2/6 597/2/6
f 597/2/6 590/2/6 598/2/6
f 591/2/6 592/2/6 599/2/6
f 599/2/6 592/2/6 600/2/6
f 601/2/6 602/2/6 605/2/6
f 605/2/6 602/2/6 606/2/6
f 603/2/6 604/2/6 607/2/6
f 607/2/6 604/2/6 608/2/6
