# MagicaVoxel @ Ephtracy

# group
o 

# material
mtllib Animal_Panda.mtl
usemtl palette

# normals
vn -1 0 0
vn 1 0 0
vn 0 0 1
vn 0 0 -1
vn 0 -1 0
vn 0 1 0

# texcoords
vt 0.00195313 0.5
vt 0.0449219 0.5
vt 0.912109 0.5
vt 0.990234 0.5

# verts
v 0 3.2 -0.7
v 0 3.2 -1
v 0 3.9 -0.7
v 0 3.9 -1
v 0.5 1.7 -0.4
v 0.5 1.7 -0.6
v 0.5 1.7 -1.4
v 0.5 1.7 -1.6
v 0.5 1.7 -2.1
v 0.5 1.7 -2.2
v 0.5 2.1 -1.6
v 0.5 2.1 -1.8
v 0.5 2.3 -1.8
v 0.5 2.3 -2.1
v 0.5 3.2 -0.7
v 0.5 3.2 -1
v 0.5 3.4 -0.7
v 0.5 3.5 -0.4
v 0.5 3.5 -0.6
v 0.5 3.5 -0.7
v 0.5 3.5 -1
v 0.5 3.5 -1.4
v 0.5 3.5 -2.2
v 0.7 1.3 -0.6
v 0.7 1.3 -0.9
v 0.7 1.3 -1.7
v 0.7 1.3 -2
v 0.7 1.7 -0.6
v 0.7 1.7 -0.9
v 0.7 1.7 -1.7
v 0.7 1.7 -2
v 0.8 2.6 -0.3
v 0.8 2.6 -0.4
v 0.8 3.1 -0.3
v 0.8 3.1 -0.4
v 1.2 2 -0.1
v 1.2 2 -0.2
v 1.2 2 -0.4
v 1.2 2.3 0
v 1.2 2.3 -0.1
v 1.2 2.3 -0.2
v 1.2 2.5 -0.3
v 1.2 2.5 -0.4
v 1.2 2.6 0
v 1.2 2.6 -0.3
v 1.2 2.6 -0.4
v 1.3 2.7 -2.2
v 1.3 2.7 -2.4
v 1.3 3.1 -2.2
v 1.3 3.1 -2.4
v 1.7 2.6 -0.3
v 1.7 2.6 -0.4
v 1.7 3.1 -0.3
v 1.7 3.1 -0.4
v 2 1.3 -0.6
v 2 1.3 -0.9
v 2 1.3 -1.7
v 2 1.3 -2
v 2 1.7 -0.6
v 2 1.7 -0.9
v 2 1.7 -1.7
v 2 1.7 -2
v 2.3 3.5 -0.7
v 2.3 3.5 -1
v 2.3 3.9 -0.7
v 2.3 3.9 -1
v 0.7 3.5 -0.7
v 0.7 3.5 -1
v 0.7 3.9 -0.7
v 0.7 3.9 -1
v 1 1.3 -0.6
v 1 1.3 -0.9
v 1 1.3 -1.7
v 1 1.3 -2
v 1 1.7 -0.6
v 1 1.7 -0.9
v 1 1.7 -1.7
v 1 1.7 -2
v 1.3 2.6 -0.3
v 1.3 2.6 -0.4
v 1.3 3.1 -0.3
v 1.3 3.1 -0.4
v 1.7 2.7 -2.2
v 1.7 2.7 -2.4
v 1.7 3.1 -2.2
v 1.7 3.1 -2.4
v 1.8 2 -0.1
v 1.8 2 -0.2
v 1.8 2 -0.4
v 1.8 2.3 0
v 1.8 2.3 -0.1
v 1.8 2.3 -0.2
v 1.8 2.5 -0.3
v 1.8 2.5 -0.4
v 1.8 2.6 0
v 1.8 2.6 -0.3
v 1.8 2.6 -0.4
v 2.2 2.6 -0.3
v 2.2 2.6 -0.4
v 2.2 3.1 -0.3
v 2.2 3.1 -0.4
v 2.3 1.3 -0.6
v 2.3 1.3 -0.9
v 2.3 1.3 -1.7
v 2.3 1.3 -2
v 2.3 1.7 -0.6
v 2.3 1.7 -0.9
v 2.3 1.7 -1.7
v 2.3 1.7 -2
v 2.5 1.7 -0.4
v 2.5 1.7 -0.6
v 2.5 1.7 -1.4
v 2.5 1.7 -1.6
v 2.5 1.7 -2.1
v 2.5 1.7 -2.2
v 2.5 2.1 -1.6
v 2.5 2.1 -1.8
v 2.5 2.3 -1.8
v 2.5 2.3 -2.1
v 2.5 3.2 -0.7
v 2.5 3.2 -1
v 2.5 3.4 -0.7
v 2.5 3.5 -0.4
v 2.5 3.5 -0.6
v 2.5 3.5 -0.7
v 2.5 3.5 -1
v 2.5 3.5 -1.4
v 2.5 3.5 -2.2
v 3 3.2 -0.7
v 3 3.2 -1
v 3 3.9 -0.7
v 3 3.9 -1
v 1.2 2.3 0
v 1.2 2.6 0
v 1.3 2.4 0
v 1.3 2.6 0
v 1.4 2.3 0
v 1.4 2.4 0
v 1.6 2.3 0
v 1.6 2.4 0
v 1.7 2.4 0
v 1.7 2.6 0
v 1.8 2.3 0
v 1.8 2.6 0
v 1.2 2 -0.1
v 1.2 2.3 -0.1
v 1.3 2.1 -0.1
v 1.3 2.3 -0.1
v 1.4 2.3 -0.1
v 1.6 2.3 -0.1
v 1.7 2.1 -0.1
v 1.7 2.3 -0.1
v 1.8 2 -0.1
v 1.8 2.3 -0.1
v 0.8 2.6 -0.3
v 0.8 3.1 -0.3
v 0.9 2.7 -0.3
v 0.9 3 -0.3
v 1.1 2.9 -0.3
v 1.1 3 -0.3
v 1.2 2.6 -0.3
v 1.2 2.7 -0.3
v 1.2 2.9 -0.3
v 1.3 2.6 -0.3
v 1.3 3.1 -0.3
v 1.7 2.6 -0.3
v 1.7 3.1 -0.3
v 1.8 2.6 -0.3
v 1.8 2.7 -0.3
v 1.8 3 -0.3
v 2 2.9 -0.3
v 2 3 -0.3
v 2.1 2.7 -0.3
v 2.1 2.9 -0.3
v 2.2 2.6 -0.3
v 2.2 3.1 -0.3
v 0.5 1.7 -0.4
v 0.5 3.5 -0.4
v 0.6 2.5 -0.4
v 0.6 3.2 -0.4
v 0.8 2.6 -0.4
v 0.8 3.1 -0.4
v 1.2 2 -0.4
v 1.2 2.5 -0.4
v 1.2 2.6 -0.4
v 1.3 2.6 -0.4
v 1.3 3.1 -0.4
v 1.4 2.6 -0.4
v 1.4 3.2 -0.4
v 1.6 2.6 -0.4
v 1.6 3.2 -0.4
v 1.7 2.6 -0.4
v 1.7 3.1 -0.4
v 1.8 2 -0.4
v 1.8 2.5 -0.4
v 1.8 2.6 -0.4
v 2.2 2.6 -0.4
v 2.2 3.1 -0.4
v 2.4 2.5 -0.4
v 2.4 3.2 -0.4
v 2.5 1.7 -0.4
v 2.5 3.5 -0.4
v 0.7 1.3 -0.6
v 0.7 1.7 -0.6
v 1 1.3 -0.6
v 1 1.7 -0.6
v 2 1.3 -0.6
v 2 1.7 -0.6
v 2.3 1.3 -0.6
v 2.3 1.7 -0.6
v 0 3.2 -0.7
v 0 3.9 -0.7
v 0.2 3.4 -0.7
v 0.2 3.7 -0.7
v 0.5 3.2 -0.7
v 0.5 3.4 -0.7
v 0.5 3.5 -0.7
v 0.5 3.7 -0.7
v 0.7 3.5 -0.7
v 0.7 3.9 -0.7
v 2.3 3.5 -0.7
v 2.3 3.9 -0.7
v 2.5 3.2 -0.7
v 2.5 3.4 -0.7
v 2.5 3.5 -0.7
v 2.5 3.7 -0.7
v 2.8 3.4 -0.7
v 2.8 3.7 -0.7
v 3 3.2 -0.7
v 3 3.9 -0.7
v 0.7 1.3 -1.7
v 0.7 1.7 -1.7
v 1 1.3 -1.7
v 1 1.7 -1.7
v 2 1.3 -1.7
v 2 1.7 -1.7
v 2.3 1.3 -1.7
v 2.3 1.7 -1.7
v 0.7 1.3 -0.9
v 0.7 1.7 -0.9
v 1 1.3 -0.9
v 1 1.7 -0.9
v 2 1.3 -0.9
v 2 1.7 -0.9
v 2.3 1.3 -0.9
v 2.3 1.7 -0.9
v 0 3.2 -1
v 0 3.9 -1
v 0.5 3.2 -1
v 0.5 3.5 -1
v 0.7 3.5 -1
v 0.7 3.9 -1
v 2.3 3.5 -1
v 2.3 3.9 -1
v 2.5 3.2 -1
v 2.5 3.5 -1
v 3 3.2 -1
v 3 3.9 -1
v 0.7 1.3 -2
v 0.7 1.7 -2
v 1 1.3 -2
v 1 1.7 -2
v 2 1.3 -2
v 2 1.7 -2
v 2.3 1.3 -2
v 2.3 1.7 -2
v 0.5 1.7 -2.2
v 0.5 3.5 -2.2
v 1.3 2.7 -2.2
v 1.3 3.1 -2.2
v 1.7 2.7 -2.2
v 1.7 3.1 -2.2
v 2.5 1.7 -2.2
v 2.5 3.5 -2.2
v 1.3 2.7 -2.4
v 1.3 3.1 -2.4
v 1.7 2.7 -2.4
v 1.7 3.1 -2.4
v 0.7 1.3 -0.6
v 1 1.3 -0.6
v 2 1.3 -0.6
v 2.3 1.3 -0.6
v 0.7 1.3 -0.9
v 1 1.3 -0.9
v 2 1.3 -0.9
v 2.3 1.3 -0.9
v 0.7 1.3 -1.7
v 1 1.3 -1.7
v 2 1.3 -1.7
v 2.3 1.3 -1.7
v 0.7 1.3 -2
v 1 1.3 -2
v 2 1.3 -2
v 2.3 1.3 -2
v 0.5 1.7 -0.4
v 2.5 1.7 -0.4
v 0.5 1.7 -0.6
v 0.7 1.7 -0.6
v 1 1.7 -0.6
v 2 1.7 -0.6
v 2.3 1.7 -0.6
v 2.5 1.7 -0.6
v 0.7 1.7 -0.9
v 1 1.7 -0.9
v 2 1.7 -0.9
v 2.3 1.7 -0.9
v 0.5 1.7 -1.4
v 2.5 1.7 -1.4
v 0.5 1.7 -1.6
v 1.1 1.7 -1.6
v 1.9 1.7 -1.6
v 2.5 1.7 -1.6
v 0.7 1.7 -1.7
v 1 1.7 -1.7
v 2 1.7 -1.7
v 2.3 1.7 -1.7
v 0.7 1.7 -2
v 1 1.7 -2
v 2 1.7 -2
v 2.3 1.7 -2
v 0.5 1.7 -2.1
v 1.1 1.7 -2.1
v 1.9 1.7 -2.1
v 2.5 1.7 -2.1
v 0.5 1.7 -2.2
v 2.5 1.7 -2.2
v 1.2 2 -0.1
v 1.8 2 -0.1
v 1.2 2 -0.2
v 1.8 2 -0.2
v 1.2 2 -0.4
v 1.8 2 -0.4
v 1.2 2.3 0
v 1.4 2.3 0
v 1.6 2.3 0
v 1.8 2.3 0
v 1.2 2.3 -0.1
v 1.3 2.3 -0.1
v 1.4 2.3 -0.1
v 1.6 2.3 -0.1
v 1.7 2.3 -0.1
v 1.8 2.3 -0.1
v 0.8 2.6 -0.3
v 1.2 2.6 -0.3
v 1.8 2.6 -0.3
v 2.2 2.6 -0.3
v 0.8 2.6 -0.4
v 1.2 2.6 -0.4
v 1.8 2.6 -0.4
v 2.2 2.6 -0.4
v 1.3 2.7 -2.2
v 1.7 2.7 -2.2
v 1.3 2.7 -2.4
v 1.7 2.7 -2.4
v 0 3.2 -0.7
v 0.5 3.2 -0.7
v 2.5 3.2 -0.7
v 3 3.2 -0.7
v 0 3.2 -1
v 0.5 3.2 -1
v 2.5 3.2 -1
v 3 3.2 -1
v 1.2 2.6 0
v 1.3 2.6 0
v 1.7 2.6 0
v 1.8 2.6 0
v 1.3 2.6 -0.1
v 1.7 2.6 -0.1
v 1.2 2.6 -0.3
v 1.3 2.6 -0.3
v 1.4 2.6 -0.3
v 1.6 2.6 -0.3
v 1.7 2.6 -0.3
v 1.8 2.6 -0.3
v 1.3 2.6 -0.4
v 1.4 2.6 -0.4
v 1.6 2.6 -0.4
v 1.7 2.6 -0.4
v 0.8 3.1 -0.3
v 1.3 3.1 -0.3
v 1.7 3.1 -0.3
v 2.2 3.1 -0.3
v 0.8 3.1 -0.4
v 1.3 3.1 -0.4
v 1.7 3.1 -0.4
v 2.2 3.1 -0.4
v 1.3 3.1 -2.2
v 1.7 3.1 -2.2
v 1.3 3.1 -2.4
v 1.7 3.1 -2.4
v 0.5 3.5 -0.4
v 2.5 3.5 -0.4
v 0.5 3.5 -0.6
v 2.5 3.5 -0.6
v 0.5 3.5 -0.7
v 0.7 3.5 -0.7
v 2.3 3.5 -0.7
v 2.5 3.5 -0.7
v 0.5 3.5 -1
v 0.7 3.5 -1
v 2.3 3.5 -1
v 2.5 3.5 -1
v 0.5 3.5 -1.4
v 2.5 3.5 -1.4
v 0.5 3.5 -2.2
v 2.5 3.5 -2.2
v 0 3.9 -0.7
v 0.7 3.9 -0.7
v 2.3 3.9 -0.7
v 3 3.9 -0.7
v 0 3.9 -1
v 0.7 3.9 -1
v 2.3 3.9 -1
v 3 3.9 -1

# faces
f 3/4/1 2/4/1 1/4/1
f 4/4/1 2/4/1 3/4/1
f 11/3/1 8/3/1 7/3/1
f 11/4/1 9/4/1 8/4/1
f 12/4/1 9/4/1 11/4/1
f 13/3/1 12/3/1 11/3/1
f 13/4/1 9/4/1 12/4/1
f 14/3/1 10/3/1 9/3/1
f 14/4/1 9/4/1 13/4/1
f 15/4/1 7/4/1 6/4/1
f 16/4/1 7/4/1 15/4/1
f 17/4/1 15/4/1 6/4/1
f 18/3/1 6/3/1 5/3/1
f 19/4/1 17/4/1 6/4/1
f 19/3/1 6/3/1 18/3/1
f 20/4/1 17/4/1 19/4/1
f 21/4/1 7/4/1 16/4/1
f 22/3/1 13/3/1 11/3/1
f 22/4/1 7/4/1 21/4/1
f 22/3/1 11/3/1 7/3/1
f 22/3/1 14/3/1 13/3/1
f 23/3/1 10/3/1 14/3/1
f 23/3/1 14/3/1 22/3/1
f 28/4/1 25/4/1 24/4/1
f 29/4/1 25/4/1 28/4/1
f 30/4/1 27/4/1 26/4/1
f 31/4/1 27/4/1 30/4/1
f 34/1/1 33/1/1 32/1/1
f 35/1/1 33/1/1 34/1/1
f 40/4/1 37/4/1 36/4/1
f 41/3/1 38/3/1 37/3/1
f 41/4/1 37/4/1 40/4/1
f 42/3/1 40/3/1 39/3/1
f 42/3/1 38/3/1 41/3/1
f 42/3/1 41/3/1 40/3/1
f 43/3/1 38/3/1 42/3/1
f 44/3/1 42/3/1 39/3/1
f 45/4/1 43/4/1 42/4/1
f 45/3/1 42/3/1 44/3/1
f 46/4/1 43/4/1 45/4/1
f 49/4/1 48/4/1 47/4/1
f 50/4/1 48/4/1 49/4/1
f 53/1/1 52/1/1 51/1/1
f 54/1/1 52/1/1 53/1/1
f 59/4/1 56/4/1 55/4/1
f 60/4/1 56/4/1 59/4/1
f 61/4/1 58/4/1 57/4/1
f 62/4/1 58/4/1 61/4/1
f 65/4/1 64/4/1 63/4/1
f 66/4/1 64/4/1 65/4/1
f 67/4/2 68/4/2 69/4/2
f 69/4/2 68/4/2 70/4/2
f 71/4/2 72/4/2 75/4/2
f 75/4/2 72/4/2 76/4/2
f 73/4/2 74/4/2 77/4/2
f 77/4/2 74/4/2 78/4/2
f 79/1/2 80/1/2 81/1/2
f 81/1/2 80/1/2 82/1/2
f 83/4/2 84/4/2 85/4/2
f 85/4/2 84/4/2 86/4/2
f 87/4/2 88/4/2 91/4/2
f 88/3/2 89/3/2 92/3/2
f 91/4/2 88/4/2 92/4/2
f 90/3/2 91/3/2 93/3/2
f 92/3/2 89/3/2 93/3/2
f 91/3/2 92/3/2 93/3/2
f 93/3/2 89/3/2 94/3/2
f 90/3/2 93/3/2 95/3/2
f 93/4/2 94/4/2 96/4/2
f 95/3/2 93/3/2 96/3/2
f 96/4/2 94/4/2 97/4/2
f 98/1/2 99/1/2 100/1/2
f 100/1/2 99/1/2 101/1/2
f 102/4/2 103/4/2 106/4/2
f 106/4/2 103/4/2 107/4/2
f 104/4/2 105/4/2 108/4/2
f 108/4/2 105/4/2 109/4/2
f 112/3/2 113/3/2 116/3/2
f 113/4/2 114/4/2 116/4/2
f 116/4/2 114/4/2 117/4/2
f 116/3/2 117/3/2 118/3/2
f 117/4/2 114/4/2 118/4/2
f 114/3/2 115/3/2 119/3/2
f 118/4/2 114/4/2 119/4/2
f 111/4/2 112/4/2 120/4/2
f 120/4/2 112/4/2 121/4/2
f 111/4/2 120/4/2 122/4/2
f 110/3/2 111/3/2 123/3/2
f 111/4/2 122/4/2 124/4/2
f 123/3/2 111/3/2 124/3/2
f 124/4/2 122/4/2 125/4/2
f 121/4/2 112/4/2 126/4/2
f 116/3/2 118/3/2 127/3/2
f 126/4/2 112/4/2 127/4/2
f 112/3/2 116/3/2 127/3/2
f 118/3/2 119/3/2 127/3/2
f 119/3/2 115/3/2 128/3/2
f 127/3/2 119/3/2 128/3/2
f 129/4/2 130/4/2 131/4/2
f 131/4/2 130/4/2 132/4/2
f 135/3/3 134/3/3 133/3/3
f 136/3/3 134/3/3 135/3/3
f 137/3/3 135/3/3 133/3/3
f 138/4/3 136/4/3 135/4/3
f 138/3/3 135/3/3 137/3/3
f 139/4/3 138/4/3 137/4/3
f 140/4/3 136/4/3 138/4/3
f 140/4/3 138/4/3 139/4/3
f 141/3/3 140/3/3 139/3/3
f 141/4/3 136/4/3 140/4/3
f 142/4/3 136/4/3 141/4/3
f 143/3/3 141/3/3 139/3/3
f 143/3/3 142/3/3 141/3/3
f 144/3/3 142/3/3 143/3/3
f 147/4/3 146/4/3 145/4/3
f 148/4/3 146/4/3 147/4/3
f 149/2/3 148/2/3 147/2/3
f 150/2/3 149/2/3 147/2/3
f 151/4/3 147/4/3 145/4/3
f 151/2/3 150/2/3 147/2/3
f 152/2/3 150/2/3 151/2/3
f 153/4/3 151/4/3 145/4/3
f 153/4/3 152/4/3 151/4/3
f 154/4/3 152/4/3 153/4/3
f 157/1/3 156/1/3 155/1/3
f 158/1/3 156/1/3 157/1/3
f 159/4/3 158/4/3 157/4/3
f 160/1/3 156/1/3 158/1/3
f 160/4/3 158/4/3 159/4/3
f 161/1/3 157/1/3 155/1/3
f 162/4/3 159/4/3 157/4/3
f 162/1/3 157/1/3 161/1/3
f 163/1/3 160/1/3 159/1/3
f 163/4/3 159/4/3 162/4/3
f 164/1/3 162/1/3 161/1/3
f 164/1/3 163/1/3 162/1/3
f 165/1/3 156/1/3 160/1/3
f 165/1/3 163/1/3 164/1/3
f 165/1/3 160/1/3 163/1/3
f 168/1/3 167/1/3 166/1/3
f 169/1/3 167/1/3 168/1/3
f 170/1/3 167/1/3 169/1/3
f 171/4/3 170/4/3 169/4/3
f 172/1/3 167/1/3 170/1/3
f 172/4/3 170/4/3 171/4/3
f 173/1/3 169/1/3 168/1/3
f 173/4/3 171/4/3 169/4/3
f 174/1/3 172/1/3 171/1/3
f 174/4/3 171/4/3 173/4/3
f 175/1/3 173/1/3 168/1/3
f 175/1/3 174/1/3 173/1/3
f 176/1/3 167/1/3 172/1/3
f 176/1/3 174/1/3 175/1/3
f 176/1/3 172/1/3 174/1/3
f 179/3/3 178/3/3 177/3/3
f 180/3/3 178/3/3 179/3/3
f 181/4/3 180/4/3 179/4/3
f 182/4/3 180/4/3 181/4/3
f 183/3/3 179/3/3 177/3/3
f 184/4/3 181/4/3 179/4/3
f 184/3/3 179/3/3 183/3/3
f 185/4/3 181/4/3 184/4/3
f 187/4/3 180/4/3 182/4/3
f 188/4/3 187/4/3 186/4/3
f 189/3/3 178/3/3 180/3/3
f 189/4/3 187/4/3 188/4/3
f 189/4/3 180/4/3 187/4/3
f 190/3/3 189/3/3 188/3/3
f 191/3/3 178/3/3 189/3/3
f 191/3/3 189/3/3 190/3/3
f 192/4/3 191/4/3 190/4/3
f 193/4/3 191/4/3 192/4/3
f 194/3/3 183/3/3 177/3/3
f 197/4/3 196/4/3 195/4/3
f 198/4/3 191/4/3 193/4/3
f 199/4/3 197/4/3 195/4/3
f 199/4/3 198/4/3 197/4/3
f 199/3/3 195/3/3 194/3/3
f 200/4/3 191/4/3 198/4/3
f 200/4/3 198/4/3 199/4/3
f 200/3/3 178/3/3 191/3/3
f 201/3/3 199/3/3 194/3/3
f 201/3/3 194/3/3 177/3/3
f 201/3/3 200/3/3 199/3/3
f 202/3/3 178/3/3 200/3/3
f 202/3/3 200/3/3 201/3/3
f 205/4/3 204/4/3 203/4/3
f 206/4/3 204/4/3 205/4/3
f 209/4/3 208/4/3 207/4/3
f 210/4/3 208/4/3 209/4/3
f 213/4/3 212/4/3 211/4/3
f 214/4/3 212/4/3 213/4/3
f 215/4/3 213/4/3 211/4/3
f 216/3/3 214/3/3 213/3/3
f 216/4/3 213/4/3 215/4/3
f 217/3/3 214/3/3 216/3/3
f 218/4/3 212/4/3 214/4/3
f 218/3/3 214/3/3 217/3/3
f 219/4/3 218/4/3 217/4/3
f 220/4/3 212/4/3 218/4/3
f 220/4/3 218/4/3 219/4/3
f 225/4/3 222/4/3 221/4/3
f 226/4/3 222/4/3 225/4/3
f 227/4/3 224/4/3 223/4/3
f 227/3/3 225/3/3 224/3/3
f 227/3/3 226/3/3 225/3/3
f 228/4/3 222/4/3 226/4/3
f 228/3/3 226/3/3 227/3/3
f 229/4/3 227/4/3 223/4/3
f 229/4/3 228/4/3 227/4/3
f 230/4/3 222/4/3 228/4/3
f 230/4/3 228/4/3 229/4/3
f 233/4/3 232/4/3 231/4/3
f 234/4/3 232/4/3 233/4/3
f 237/4/3 236/4/3 235/4/3
f 238/4/3 236/4/3 237/4/3
f 239/4/4 240/4/4 241/4/4
f 241/4/4 240/4/4 242/4/4
f 243/4/4 244/4/4 245/4/4
f 245/4/4 244/4/4 246/4/4
f 247/4/4 248/4/4 249/4/4
f 249/4/4 248/4/4 250/4/4
f 250/4/4 248/4/4 251/4/4
f 251/4/4 248/4/4 252/4/4
f 253/4/4 254/4/4 256/4/4
f 255/4/4 256/4/4 257/4/4
f 256/4/4 254/4/4 258/4/4
f 257/4/4 256/4/4 258/4/4
f 259/4/4 260/4/4 261/4/4
f 261/4/4 260/4/4 262/4/4
f 263/4/4 264/4/4 265/4/4
f 265/4/4 264/4/4 266/4/4
f 267/3/4 268/3/4 269/3/4
f 269/3/4 268/3/4 270/3/4
f 267/3/4 269/3/4 271/3/4
f 270/3/4 268/3/4 272/3/4
f 267/3/4 271/3/4 273/3/4
f 271/3/4 272/3/4 273/3/4
f 272/3/4 268/3/4 274/3/4
f 273/3/4 272/3/4 274/3/4
f 275/4/4 276/4/4 277/4/4
f 277/4/4 276/4/4 278/4/4
f 283/4/5 280/4/5 279/4/5
f 284/4/5 280/4/5 283/4/5
f 285/4/5 282/4/5 281/4/5
f 286/4/5 282/4/5 285/4/5
f 291/4/5 288/4/5 287/4/5
f 292/4/5 288/4/5 291/4/5
f 293/4/5 290/4/5 289/4/5
f 294/4/5 290/4/5 293/4/5
f 297/3/5 296/3/5 295/3/5
f 298/3/5 296/3/5 297/3/5
f 299/3/5 296/3/5 298/3/5
f 300/3/5 296/3/5 299/3/5
f 301/3/5 296/3/5 300/3/5
f 302/3/5 296/3/5 301/3/5
f 303/4/5 298/4/5 297/4/5
f 304/4/5 300/4/5 299/4/5
f 305/4/5 300/4/5 304/4/5
f 306/4/5 302/4/5 301/4/5
f 307/4/5 305/4/5 304/4/5
f 307/4/5 306/4/5 305/4/5
f 307/4/5 303/4/5 297/4/5
f 307/4/5 304/4/5 303/4/5
f 308/4/5 302/4/5 306/4/5
f 308/4/5 306/4/5 307/4/5
f 309/3/5 308/3/5 307/3/5
f 310/3/5 308/3/5 309/3/5
f 311/3/5 308/3/5 310/3/5
f 312/3/5 308/3/5 311/3/5
f 313/4/5 310/4/5 309/4/5
f 314/4/5 310/4/5 313/4/5
f 315/4/5 312/4/5 311/4/5
f 316/4/5 312/4/5 315/4/5
f 317/4/5 313/4/5 309/4/5
f 318/4/5 310/4/5 314/4/5
f 319/4/5 315/4/5 311/4/5
f 320/4/5 312/4/5 316/4/5
f 321/4/5 317/4/5 309/4/5
f 321/4/5 318/4/5 317/4/5
f 322/3/5 311/3/5 310/3/5
f 322/4/5 318/4/5 321/4/5
f 322/4/5 310/4/5 318/4/5
f 323/4/5 320/4/5 319/4/5
f 323/3/5 311/3/5 322/3/5
f 323/4/5 319/4/5 311/4/5
f 324/4/5 312/4/5 320/4/5
f 324/4/5 320/4/5 323/4/5
f 325/3/5 322/3/5 321/3/5
f 325/3/5 323/3/5 322/3/5
f 325/3/5 324/3/5 323/3/5
f 326/3/5 324/3/5 325/3/5
f 329/4/5 328/4/5 327/4/5
f 330/4/5 328/4/5 329/4/5
f 331/3/5 330/3/5 329/3/5
f 332/3/5 330/3/5 331/3/5
f 337/3/5 334/3/5 333/3/5
f 338/3/5 334/3/5 337/3/5
f 339/4/5 335/4/5 334/4/5
f 339/3/5 334/3/5 338/3/5
f 340/3/5 336/3/5 335/3/5
f 340/4/5 335/4/5 339/4/5
f 341/3/5 336/3/5 340/3/5
f 342/3/5 336/3/5 341/3/5
f 347/1/5 344/1/5 343/1/5
f 348/1/5 344/1/5 347/1/5
f 349/1/5 346/1/5 345/1/5
f 350/1/5 346/1/5 349/1/5
f 353/4/5 352/4/5 351/4/5
f 354/4/5 352/4/5 353/4/5
f 359/4/5 356/4/5 355/4/5
f 360/4/5 356/4/5 359/4/5
f 361/4/5 358/4/5 357/4/5
f 362/4/5 358/4/5 361/4/5
f 363/3/6 364/3/6 367/3/6
f 364/4/6 365/4/6 367/4/6
f 365/3/6 366/3/6 368/3/6
f 367/4/6 365/4/6 368/4/6
f 363/3/6 367/3/6 369/3/6
f 367/3/6 368/3/6 369/3/6
f 369/3/6 368/3/6 370/3/6
f 370/3/6 368/3/6 371/3/6
f 371/3/6 368/3/6 372/3/6
f 368/3/6 366/3/6 373/3/6
f 372/3/6 368/3/6 373/3/6
f 373/3/6 366/3/6 374/3/6
f 370/4/6 371/4/6 375/4/6
f 371/3/6 372/3/6 376/3/6
f 375/4/6 371/4/6 376/4/6
f 372/4/6 373/4/6 377/4/6
f 376/3/6 372/3/6 377/3/6
f 377/4/6 373/4/6 378/4/6
f 379/1/6 380/1/6 383/1/6
f 383/1/6 380/1/6 384/1/6
f 381/1/6 382/1/6 385/1/6
f 385/1/6 382/1/6 386/1/6
f 387/4/6 388/4/6 389/4/6
f 389/4/6 388/4/6 390/4/6
f 391/3/6 392/3/6 393/3/6
f 393/3/6 392/3/6 394/3/6
f 393/4/6 394/4/6 395/4/6
f 395/4/6 394/4/6 396/4/6
f 396/4/6 394/4/6 397/4/6
f 397/4/6 394/4/6 398/4/6
f 396/4/6 397/4/6 400/4/6
f 400/4/6 397/4/6 401/4/6
f 399/4/6 400/4/6 403/4/6
f 401/4/6 402/4/6 403/4/6
f 400/4/6 401/4/6 403/4/6
f 403/4/6 402/4/6 404/4/6
f 403/3/6 404/3/6 405/3/6
f 405/3/6 404/3/6 406/3/6
f 407/4/6 408/4/6 411/4/6
f 411/4/6 408/4/6 412/4/6
f 409/4/6 410/4/6 413/4/6
f 413/4/6 410/4/6 414/4/6
