# MagicaVoxel @ Ephtracy

# group
o 

# material
mtllib Animal_Pig.mtl
usemtl palette

# normals
vn -1 0 0
vn 1 0 0
vn 0 0 1
vn 0 0 -1
vn 0 -1 0
vn 0 1 0

# texcoords
vt 0.00195313 0.5
vt 0.0214844 0.5
vt 0.0292969 0.5
vt 0.994141 0.5

# verts
v 0 1.7 -0.4
v 0 1.7 -2.2
v 0 3.5 -0.4
v 0 3.5 -2.2
v 0.1 3.5 -0.7
v 0.1 3.5 -1.1
v 0.1 3.8 -0.7
v 0.1 3.8 -1.1
v 0.2 1.3 -0.6
v 0.2 1.3 -0.9
v 0.2 1.3 -1.7
v 0.2 1.3 -2
v 0.2 1.4 -0.6
v 0.2 1.4 -0.9
v 0.2 1.4 -1.7
v 0.2 1.4 -2
v 0.2 1.7 -0.6
v 0.2 1.7 -0.9
v 0.2 1.7 -1.7
v 0.2 1.7 -2
v 0.2 3.8 -0.5
v 0.2 3.8 -0.7
v 0.2 3.8 -1.1
v 0.2 3.9 -0.5
v 0.2 3.9 -1.1
v 0.3 2.6 -0.3
v 0.3 2.6 -0.4
v 0.3 3.1 -0.3
v 0.3 3.1 -0.4
v 0.6 2.1 0
v 0.6 2.1 -0.4
v 0.6 2.6 0
v 0.6 2.6 -0.3
v 0.6 2.6 -0.4
v 0.6 3.5 -0.7
v 0.6 3.5 -0.9
v 0.6 3.8 -0.7
v 0.6 3.8 -0.9
v 0.9 2.3 0
v 0.9 2.3 -0.1
v 0.9 2.5 0
v 0.9 2.5 -0.1
v 1.2 2.6 -0.3
v 1.2 2.6 -0.4
v 1.2 3.1 -0.3
v 1.2 3.1 -0.4
v 1.3 2.3 0
v 1.3 2.3 -0.1
v 1.3 2.5 0
v 1.3 2.5 -0.1
v 1.3 3.5 -0.7
v 1.3 3.5 -1.1
v 1.3 3.8 -0.7
v 1.3 3.8 -1.1
v 1.4 3.8 -0.5
v 1.4 3.8 -0.7
v 1.4 3.8 -1.1
v 1.4 3.9 -0.5
v 1.4 3.9 -1.1
v 1.5 1.3 -0.6
v 1.5 1.3 -0.9
v 1.5 1.3 -1.7
v 1.5 1.3 -2
v 1.5 1.4 -0.6
v 1.5 1.4 -0.9
v 1.5 1.4 -1.7
v 1.5 1.4 -2
v 1.5 1.7 -0.6
v 1.5 1.7 -0.9
v 1.5 1.7 -1.7
v 1.5 1.7 -2
v 1.8 3.5 -0.7
v 1.8 3.5 -0.9
v 1.8 3.8 -0.7
v 1.8 3.8 -0.9
v 0.2 3.5 -0.7
v 0.2 3.5 -0.9
v 0.2 3.8 -0.7
v 0.2 3.8 -0.9
v 0.5 1.3 -0.6
v 0.5 1.3 -0.9
v 0.5 1.3 -1.7
v 0.5 1.3 -2
v 0.5 1.4 -0.6
v 0.5 1.4 -0.9
v 0.5 1.4 -1.7
v 0.5 1.4 -2
v 0.5 1.7 -0.6
v 0.5 1.7 -0.9
v 0.5 1.7 -1.7
v 0.5 1.7 -2
v 0.6 3.8 -0.5
v 0.6 3.8 -0.7
v 0.6 3.8 -1.1
v 0.6 3.9 -0.5
v 0.6 3.9 -1.1
v 0.7 2.3 0
v 0.7 2.3 -0.1
v 0.7 2.5 0
v 0.7 2.5 -0.1
v 0.7 3.5 -0.7
v 0.7 3.5 -1.1
v 0.7 3.8 -0.7
v 0.7 3.8 -1.1
v 0.8 2.6 -0.3
v 0.8 2.6 -0.4
v 0.8 3.1 -0.3
v 0.8 3.1 -0.4
v 1.1 2.3 0
v 1.1 2.3 -0.1
v 1.1 2.5 0
v 1.1 2.5 -0.1
v 1.4 2.1 0
v 1.4 2.1 -0.4
v 1.4 2.6 0
v 1.4 2.6 -0.3
v 1.4 2.6 -0.4
v 1.4 3.5 -0.7
v 1.4 3.5 -0.9
v 1.4 3.8 -0.7
v 1.4 3.8 -0.9
v 1.7 2.6 -0.3
v 1.7 2.6 -0.4
v 1.7 3.1 -0.3
v 1.7 3.1 -0.4
v 1.8 1.3 -0.6
v 1.8 1.3 -0.9
v 1.8 1.3 -1.7
v 1.8 1.3 -2
v 1.8 1.4 -0.6
v 1.8 1.4 -0.9
v 1.8 1.4 -1.7
v 1.8 1.4 -2
v 1.8 1.7 -0.6
v 1.8 1.7 -0.9
v 1.8 1.7 -1.7
v 1.8 1.7 -2
v 1.8 3.8 -0.5
v 1.8 3.8 -0.7
v 1.8 3.8 -1.1
v 1.8 3.9 -0.5
v 1.8 3.9 -1.1
v 1.9 3.5 -0.7
v 1.9 3.5 -1.1
v 1.9 3.8 -0.7
v 1.9 3.8 -1.1
v 2 1.7 -0.4
v 2 1.7 -2.2
v 2 3.5 -0.4
v 2 3.5 -2.2
v 0.6 2.1 0
v 0.6 2.6 0
v 0.7 2.3 0
v 0.7 2.5 0
v 0.9 2.3 0
v 0.9 2.5 0
v 1.1 2.3 0
v 1.1 2.5 0
v 1.3 2.3 0
v 1.3 2.5 0
v 1.4 2.1 0
v 1.4 2.6 0
v 0.7 2.3 -0.1
v 0.7 2.5 -0.1
v 0.9 2.3 -0.1
v 0.9 2.5 -0.1
v 1.1 2.3 -0.1
v 1.1 2.5 -0.1
v 1.3 2.3 -0.1
v 1.3 2.5 -0.1
v 0.3 2.6 -0.3
v 0.3 3.1 -0.3
v 0.4 2.7 -0.3
v 0.4 3 -0.3
v 0.6 2.6 -0.3
v 0.6 2.9 -0.3
v 0.6 3 -0.3
v 0.7 2.7 -0.3
v 0.7 2.9 -0.3
v 0.8 2.6 -0.3
v 0.8 3.1 -0.3
v 1.2 2.6 -0.3
v 1.2 3.1 -0.3
v 1.3 2.7 -0.3
v 1.3 3 -0.3
v 1.4 2.6 -0.3
v 1.5 2.9 -0.3
v 1.5 3 -0.3
v 1.6 2.7 -0.3
v 1.6 2.9 -0.3
v 1.7 2.6 -0.3
v 1.7 3.1 -0.3
v 0 1.7 -0.4
v 0 3.5 -0.4
v 0.3 2.6 -0.4
v 0.3 3.1 -0.4
v 0.6 2.1 -0.4
v 0.6 2.6 -0.4
v 0.8 2.6 -0.4
v 0.8 3.1 -0.4
v 1.2 2.6 -0.4
v 1.2 3.1 -0.4
v 1.4 2.1 -0.4
v 1.4 2.6 -0.4
v 1.7 2.6 -0.4
v 1.7 3.1 -0.4
v 2 1.7 -0.4
v 2 3.5 -0.4
v 0.2 3.8 -0.5
v 0.2 3.9 -0.5
v 0.6 3.8 -0.5
v 0.6 3.9 -0.5
v 1.4 3.8 -0.5
v 1.4 3.9 -0.5
v 1.8 3.8 -0.5
v 1.8 3.9 -0.5
v 0.2 1.3 -0.6
v 0.2 1.4 -0.6
v 0.2 1.7 -0.6
v 0.5 1.3 -0.6
v 0.5 1.4 -0.6
v 0.5 1.7 -0.6
v 1.5 1.3 -0.6
v 1.5 1.4 -0.6
v 1.5 1.7 -0.6
v 1.8 1.3 -0.6
v 1.8 1.4 -0.6
v 1.8 1.7 -0.6
v 0.1 3.5 -0.7
v 0.1 3.8 -0.7
v 0.2 3.5 -0.7
v 0.2 3.8 -0.7
v 0.6 3.5 -0.7
v 0.6 3.8 -0.7
v 0.7 3.5 -0.7
v 0.7 3.8 -0.7
v 1.3 3.5 -0.7
v 1.3 3.8 -0.7
v 1.4 3.5 -0.7
v 1.4 3.8 -0.7
v 1.8 3.5 -0.7
v 1.8 3.8 -0.7
v 1.9 3.5 -0.7
v 1.9 3.8 -0.7
v 0.2 3.5 -0.9
v 0.2 3.8 -0.9
v 0.6 3.5 -0.9
v 0.6 3.8 -0.9
v 1.4 3.5 -0.9
v 1.4 3.8 -0.9
v 1.8 3.5 -0.9
v 1.8 3.8 -0.9
v 0.2 1.3 -1.7
v 0.2 1.4 -1.7
v 0.2 1.7 -1.7
v 0.5 1.3 -1.7
v 0.5 1.4 -1.7
v 0.5 1.7 -1.7
v 1.5 1.3 -1.7
v 1.5 1.4 -1.7
v 1.5 1.7 -1.7
v 1.8 1.3 -1.7
v 1.8 1.4 -1.7
v 1.8 1.7 -1.7
v 0.2 1.3 -0.9
v 0.2 1.4 -0.9
v 0.2 1.7 -0.9
v 0.5 1.3 -0.9
v 0.5 1.4 -0.9
v 0.5 1.7 -0.9
v 1.5 1.3 -0.9
v 1.5 1.4 -0.9
v 1.5 1.7 -0.9
v 1.8 1.3 -0.9
v 1.8 1.4 -0.9
v 1.8 1.7 -0.9
v 0.1 3.5 -1.1
v 0.1 3.8 -1.1
v 0.2 3.8 -1.1
v 0.2 3.9 -1.1
v 0.6 3.8 -1.1
v 0.6 3.9 -1.1
v 0.7 3.5 -1.1
v 0.7 3.8 -1.1
v 1.3 3.5 -1.1
v 1.3 3.8 -1.1
v 1.4 3.8 -1.1
v 1.4 3.9 -1.1
v 1.8 3.8 -1.1
v 1.8 3.9 -1.1
v 1.9 3.5 -1.1
v 1.9 3.8 -1.1
v 0.2 1.3 -2
v 0.2 1.4 -2
v 0.2 1.7 -2
v 0.5 1.3 -2
v 0.5 1.4 -2
v 0.5 1.7 -2
v 1.5 1.3 -2
v 1.5 1.4 -2
v 1.5 1.7 -2
v 1.8 1.3 -2
v 1.8 1.4 -2
v 1.8 1.7 -2
v 0 1.7 -2.2
v 0 3.5 -2.2
v 2 1.7 -2.2
v 2 3.5 -2.2
v 0.2 1.3 -0.6
v 0.5 1.3 -0.6
v 1.5 1.3 -0.6
v 1.8 1.3 -0.6
v 0.2 1.3 -0.9
v 0.5 1.3 -0.9
v 1.5 1.3 -0.9
v 1.8 1.3 -0.9
v 0.2 1.3 -1.7
v 0.5 1.3 -1.7
v 1.5 1.3 -1.7
v 1.8 1.3 -1.7
v 0.2 1.3 -2
v 0.5 1.3 -2
v 1.5 1.3 -2
v 1.8 1.3 -2
v 0 1.7 -0.4
v 2 1.7 -0.4
v 0.2 1.7 -0.6
v 0.5 1.7 -0.6
v 1.5 1.7 -0.6
v 1.8 1.7 -0.6
v 0.2 1.7 -0.9
v 0.5 1.7 -0.9
v 1.5 1.7 -0.9
v 1.8 1.7 -0.9
v 0.2 1.7 -1.7
v 0.5 1.7 -1.7
v 1.5 1.7 -1.7
v 1.8 1.7 -1.7
v 0.2 1.7 -2
v 0.5 1.7 -2
v 1.5 1.7 -2
v 1.8 1.7 -2
v 0 1.7 -2.2
v 2 1.7 -2.2
v 0.6 2.1 0
v 1.4 2.1 0
v 0.6 2.1 -0.4
v 1.4 2.1 -0.4
v 0.7 2.5 0
v 0.9 2.5 0
v 1.1 2.5 0
v 1.3 2.5 0
v 0.7 2.5 -0.1
v 0.9 2.5 -0.1
v 1.1 2.5 -0.1
v 1.3 2.5 -0.1
v 0.3 2.6 -0.3
v 0.6 2.6 -0.3
v 1.4 2.6 -0.3
v 1.7 2.6 -0.3
v 0.3 2.6 -0.4
v 0.6 2.6 -0.4
v 1.4 2.6 -0.4
v 1.7 2.6 -0.4
v 0.2 3.8 -0.5
v 0.6 3.8 -0.5
v 1.4 3.8 -0.5
v 1.8 3.8 -0.5
v 0.2 3.8 -0.7
v 0.6 3.8 -0.7
v 1.4 3.8 -0.7
v 1.8 3.8 -0.7
v 0.2 3.8 -0.9
v 0.6 3.8 -0.9
v 1.4 3.8 -0.9
v 1.8 3.8 -0.9
v 0.7 2.3 0
v 0.9 2.3 0
v 1.1 2.3 0
v 1.3 2.3 0
v 0.7 2.3 -0.1
v 0.9 2.3 -0.1
v 1.1 2.3 -0.1
v 1.3 2.3 -0.1
v 0.6 2.6 0
v 1.4 2.6 0
v 0.6 2.6 -0.3
v 0.8 2.6 -0.3
v 1.2 2.6 -0.3
v 1.4 2.6 -0.3
v 0.8 2.6 -0.4
v 1.2 2.6 -0.4
v 0.3 3.1 -0.3
v 0.8 3.1 -0.3
v 1.2 3.1 -0.3
v 1.7 3.1 -0.3
v 0.3 3.1 -0.4
v 0.8 3.1 -0.4
v 1.2 3.1 -0.4
v 1.7 3.1 -0.4
v 0 3.5 -0.4
v 2 3.5 -0.4
v 0.1 3.5 -0.7
v 0.2 3.5 -0.7
v 0.6 3.5 -0.7
v 0.7 3.5 -0.7
v 1.3 3.5 -0.7
v 1.4 3.5 -0.7
v 1.8 3.5 -0.7
v 1.9 3.5 -0.7
v 0.2 3.5 -0.9
v 0.6 3.5 -0.9
v 1.4 3.5 -0.9
v 1.8 3.5 -0.9
v 0.1 3.5 -1.1
v 0.7 3.5 -1.1
v 1.3 3.5 -1.1
v 1.9 3.5 -1.1
v 0 3.5 -2.2
v 2 3.5 -2.2
v 0.1 3.8 -0.7
v 0.2 3.8 -0.7
v 0.6 3.8 -0.7
v 0.7 3.8 -0.7
v 1.3 3.8 -0.7
v 1.4 3.8 -0.7
v 1.8 3.8 -0.7
v 1.9 3.8 -0.7
v 0.1 3.8 -1.1
v 0.2 3.8 -1.1
v 0.6 3.8 -1.1
v 0.7 3.8 -1.1
v 1.3 3.8 -1.1
v 1.4 3.8 -1.1
v 1.8 3.8 -1.1
v 1.9 3.8 -1.1
v 0.2 3.9 -0.5
v 0.6 3.9 -0.5
v 1.4 3.9 -0.5
v 1.8 3.9 -0.5
v 0.2 3.9 -1.1
v 0.6 3.9 -1.1
v 1.4 3.9 -1.1
v 1.8 3.9 -1.1

# faces
f 3/2/1 2/2/1 1/2/1
f 4/2/1 2/2/1 3/2/1
f 7/2/1 6/2/1 5/2/1
f 8/2/1 6/2/1 7/2/1
f 13/3/1 10/3/1 9/3/1
f 14/3/1 10/3/1 13/3/1
f 15/3/1 12/3/1 11/3/1
f 16/3/1 12/3/1 15/3/1
f 17/2/1 14/2/1 13/2/1
f 18/2/1 14/2/1 17/2/1
f 19/2/1 16/2/1 15/2/1
f 20/2/1 16/2/1 19/2/1
f 24/2/1 22/2/1 21/2/1
f 24/2/1 23/2/1 22/2/1
f 25/2/1 23/2/1 24/2/1
f 28/1/1 27/1/1 26/1/1
f 29/1/1 27/1/1 28/1/1
f 32/2/1 31/2/1 30/2/1
f 33/2/1 31/2/1 32/2/1
f 34/2/1 31/2/1 33/2/1
f 37/2/1 36/2/1 35/2/1
f 38/2/1 36/2/1 37/2/1
f 41/2/1 40/2/1 39/2/1
f 42/2/1 40/2/1 41/2/1
f 45/1/1 44/1/1 43/1/1
f 46/1/1 44/1/1 45/1/1
f 49/2/1 48/2/1 47/2/1
f 50/2/1 48/2/1 49/2/1
f 53/2/1 52/2/1 51/2/1
f 54/2/1 52/2/1 53/2/1
f 58/2/1 56/2/1 55/2/1
f 58/2/1 57/2/1 56/2/1
f 59/2/1 57/2/1 58/2/1
f 64/3/1 61/3/1 60/3/1
f 65/3/1 61/3/1 64/3/1
f 66/3/1 63/3/1 62/3/1
f 67/3/1 63/3/1 66/3/1
f 68/2/1 65/2/1 64/2/1
f 69/2/1 65/2/1 68/2/1
f 70/2/1 67/2/1 66/2/1
f 71/2/1 67/2/1 70/2/1
f 74/2/1 73/2/1 72/2/1
f 75/2/1 73/2/1 74/2/1
f 76/2/2 77/2/2 78/2/2
f 78/2/2 77/2/2 79/2/2
f 80/3/2 81/3/2 84/3/2
f 84/3/2 81/3/2 85/3/2
f 82/3/2 83/3/2 86/3/2
f 86/3/2 83/3/2 87/3/2
f 84/2/2 85/2/2 88/2/2
f 88/2/2 85/2/2 89/2/2
f 86/2/2 87/2/2 90/2/2
f 90/2/2 87/2/2 91/2/2
f 92/2/2 93/2/2 95/2/2
f 93/2/2 94/2/2 95/2/2
f 95/2/2 94/2/2 96/2/2
f 97/2/2 98/2/2 99/2/2
f 99/2/2 98/2/2 100/2/2
f 101/2/2 102/2/2 103/2/2
f 103/2/2 102/2/2 104/2/2
f 105/1/2 106/1/2 107/1/2
f 107/1/2 106/1/2 108/1/2
f 109/2/2 110/2/2 111/2/2
f 111/2/2 110/2/2 112/2/2
f 113/2/2 114/2/2 115/2/2
f 115/2/2 114/2/2 116/2/2
f 116/2/2 114/2/2 117/2/2
f 118/2/2 119/2/2 120/2/2
f 120/2/2 119/2/2 121/2/2
f 122/1/2 123/1/2 124/1/2
f 124/1/2 123/1/2 125/1/2
f 126/3/2 127/3/2 130/3/2
f 130/3/2 127/3/2 131/3/2
f 128/3/2 129/3/2 132/3/2
f 132/3/2 129/3/2 133/3/2
f 130/2/2 131/2/2 134/2/2
f 134/2/2 131/2/2 135/2/2
f 132/2/2 133/2/2 136/2/2
f 136/2/2 133/2/2 137/2/2
f 138/2/2 139/2/2 141/2/2
f 139/2/2 140/2/2 141/2/2
f 141/2/2 140/2/2 142/2/2
f 143/2/2 144/2/2 145/2/2
f 145/2/2 144/2/2 146/2/2
f 147/2/2 148/2/2 149/2/2
f 149/2/2 148/2/2 150/2/2
f 153/2/3 152/2/3 151/2/3
f 154/2/3 152/2/3 153/2/3
f 155/2/3 153/2/3 151/2/3
f 156/2/3 152/2/3 154/2/3
f 157/2/3 155/2/3 151/2/3
f 157/2/3 156/2/3 155/2/3
f 158/2/3 152/2/3 156/2/3
f 158/2/3 156/2/3 157/2/3
f 159/2/3 157/2/3 151/2/3
f 160/2/3 152/2/3 158/2/3
f 161/2/3 159/2/3 151/2/3
f 161/2/3 160/2/3 159/2/3
f 162/2/3 152/2/3 160/2/3
f 162/2/3 160/2/3 161/2/3
f 165/4/3 164/4/3 163/4/3
f 166/4/3 164/4/3 165/4/3
f 169/4/3 168/4/3 167/4/3
f 170/4/3 168/4/3 169/4/3
f 173/1/3 172/1/3 171/1/3
f 174/1/3 172/1/3 173/1/3
f 175/1/3 173/1/3 171/1/3
f 176/4/3 174/4/3 173/4/3
f 177/1/3 172/1/3 174/1/3
f 177/4/3 174/4/3 176/4/3
f 178/4/3 176/4/3 173/4/3
f 178/1/3 173/1/3 175/1/3
f 179/1/3 177/1/3 176/1/3
f 179/4/3 176/4/3 178/4/3
f 180/1/3 178/1/3 175/1/3
f 180/1/3 179/1/3 178/1/3
f 181/1/3 172/1/3 177/1/3
f 181/1/3 179/1/3 180/1/3
f 181/1/3 177/1/3 179/1/3
f 184/1/3 183/1/3 182/1/3
f 185/1/3 183/1/3 184/1/3
f 186/1/3 184/1/3 182/1/3
f 187/4/3 185/4/3 184/4/3
f 188/1/3 183/1/3 185/1/3
f 188/4/3 185/4/3 187/4/3
f 189/4/3 187/4/3 184/4/3
f 189/1/3 184/1/3 186/1/3
f 190/1/3 188/1/3 187/1/3
f 190/4/3 187/4/3 189/4/3
f 191/1/3 189/1/3 186/1/3
f 191/1/3 190/1/3 189/1/3
f 192/1/3 183/1/3 188/1/3
f 192/1/3 190/1/3 191/1/3
f 192/1/3 188/1/3 190/1/3
f 195/2/3 194/2/3 193/2/3
f 196/2/3 194/2/3 195/2/3
f 197/2/3 195/2/3 193/2/3
f 198/2/3 195/2/3 197/2/3
f 200/2/3 194/2/3 196/2/3
f 201/2/3 200/2/3 199/2/3
f 202/2/3 194/2/3 200/2/3
f 202/2/3 200/2/3 201/2/3
f 203/2/3 197/2/3 193/2/3
f 205/2/3 204/2/3 203/2/3
f 206/2/3 194/2/3 202/2/3
f 207/2/3 205/2/3 203/2/3
f 207/2/3 206/2/3 205/2/3
f 207/2/3 203/2/3 193/2/3
f 208/2/3 194/2/3 206/2/3
f 208/2/3 206/2/3 207/2/3
f 211/2/3 210/2/3 209/2/3
f 212/2/3 210/2/3 211/2/3
f 215/2/3 214/2/3 213/2/3
f 216/2/3 214/2/3 215/2/3
f 220/3/3 218/3/3 217/3/3
f 221/2/3 219/2/3 218/2/3
f 221/3/3 218/3/3 220/3/3
f 222/2/3 219/2/3 221/2/3
f 226/3/3 224/3/3 223/3/3
f 227/2/3 225/2/3 224/2/3
f 227/3/3 224/3/3 226/3/3
f 228/2/3 225/2/3 227/2/3
f 231/2/3 230/2/3 229/2/3
f 232/2/3 230/2/3 231/2/3
f 235/2/3 234/2/3 233/2/3
f 236/2/3 234/2/3 235/2/3
f 239/2/3 238/2/3 237/2/3
f 240/2/3 238/2/3 239/2/3
f 243/2/3 242/2/3 241/2/3
f 244/2/3 242/2/3 243/2/3
f 247/2/3 246/2/3 245/2/3
f 248/2/3 246/2/3 247/2/3
f 251/2/3 250/2/3 249/2/3
f 252/2/3 250/2/3 251/2/3
f 256/3/3 254/3/3 253/3/3
f 257/2/3 255/2/3 254/2/3
f 257/3/3 254/3/3 256/3/3
f 258/2/3 255/2/3 257/2/3
f 262/3/3 260/3/3 259/3/3
f 263/2/3 261/2/3 260/2/3
f 263/3/3 260/3/3 262/3/3
f 264/2/3 261/2/3 263/2/3
f 265/3/4 266/3/4 268/3/4
f 266/2/4 267/2/4 269/2/4
f 268/3/4 266/3/4 269/3/4
f 269/2/4 267/2/4 270/2/4
f 271/3/4 272/3/4 274/3/4
f 272/2/4 273/2/4 275/2/4
f 274/3/4 272/3/4 275/3/4
f 275/2/4 273/2/4 276/2/4
f 277/2/4 278/2/4 279/2/4
f 277/2/4 279/2/4 281/2/4
f 279/2/4 280/2/4 281/2/4
f 281/2/4 280/2/4 282/2/4
f 277/2/4 281/2/4 283/2/4
f 283/2/4 281/2/4 284/2/4
f 285/2/4 286/2/4 287/2/4
f 285/2/4 287/2/4 289/2/4
f 287/2/4 288/2/4 289/2/4
f 289/2/4 288/2/4 290/2/4
f 285/2/4 289/2/4 291/2/4
f 291/2/4 289/2/4 292/2/4
f 293/3/4 294/3/4 296/3/4
f 294/2/4 295/2/4 297/2/4
f 296/3/4 294/3/4 297/3/4
f 297/2/4 295/2/4 298/2/4
f 299/3/4 300/3/4 302/3/4
f 300/2/4 301/2/4 303/2/4
f 302/3/4 300/3/4 303/3/4
f 303/2/4 301/2/4 304/2/4
f 305/2/4 306/2/4 307/2/4
f 307/2/4 306/2/4 308/2/4
f 313/3/5 310/3/5 309/3/5
f 314/3/5 310/3/5 313/3/5
f 315/3/5 312/3/5 311/3/5
f 316/3/5 312/3/5 315/3/5
f 321/3/5 318/3/5 317/3/5
f 322/3/5 318/3/5 321/3/5
f 323/3/5 320/3/5 319/3/5
f 324/3/5 320/3/5 323/3/5
f 327/2/5 326/2/5 325/2/5
f 328/2/5 326/2/5 327/2/5
f 329/2/5 326/2/5 328/2/5
f 330/2/5 326/2/5 329/2/5
f 331/2/5 327/2/5 325/2/5
f 332/2/5 329/2/5 328/2/5
f 333/2/5 329/2/5 332/2/5
f 334/2/5 326/2/5 330/2/5
f 335/2/5 333/2/5 332/2/5
f 335/2/5 334/2/5 333/2/5
f 335/2/5 331/2/5 325/2/5
f 335/2/5 332/2/5 331/2/5
f 336/2/5 334/2/5 335/2/5
f 337/2/5 334/2/5 336/2/5
f 338/2/5 326/2/5 334/2/5
f 338/2/5 334/2/5 337/2/5
f 339/2/5 335/2/5 325/2/5
f 340/2/5 337/2/5 336/2/5
f 341/2/5 337/2/5 340/2/5
f 342/2/5 326/2/5 338/2/5
f 343/2/5 339/2/5 325/2/5
f 343/2/5 342/2/5 341/2/5
f 343/2/5 341/2/5 340/2/5
f 343/2/5 340/2/5 339/2/5
f 344/2/5 326/2/5 342/2/5
f 344/2/5 342/2/5 343/2/5
f 347/2/5 346/2/5 345/2/5
f 348/2/5 346/2/5 347/2/5
f 353/2/5 350/2/5 349/2/5
f 354/2/5 350/2/5 353/2/5
f 355/2/5 352/2/5 351/2/5
f 356/2/5 352/2/5 355/2/5
f 361/1/5 358/1/5 357/1/5
f 362/1/5 358/1/5 361/1/5
f 363/1/5 360/1/5 359/1/5
f 364/1/5 360/1/5 363/1/5
f 369/2/5 366/2/5 365/2/5
f 370/2/5 366/2/5 369/2/5
f 371/2/5 368/2/5 367/2/5
f 372/2/5 368/2/5 371/2/5
f 373/2/5 370/2/5 369/2/5
f 374/2/5 370/2/5 373/2/5
f 375/2/5 372/2/5 371/2/5
f 376/2/5 372/2/5 375/2/5
f 377/2/6 378/2/6 381/2/6
f 381/2/6 378/2/6 382/2/6
f 379/2/6 380/2/6 383/2/6
f 383/2/6 380/2/6 384/2/6
f 385/2/6 386/2/6 387/2/6
f 387/2/6 386/2/6 388/2/6
f 388/2/6 386/2/6 389/2/6
f 389/2/6 386/2/6 390/2/6
f 388/2/6 389/2/6 391/2/6
f 391/2/6 389/2/6 392/2/6
f 393/1/6 394/1/6 397/1/6
f 397/1/6 394/1/6 398/1/6
f 395/1/6 396/1/6 399/1/6
f 399/1/6 396/1/6 400/1/6
f 401/2/6 402/2/6 403/2/6
f 403/2/6 402/2/6 404/2/6
f 404/2/6 402/2/6 405/2/6
f 405/2/6 402/2/6 406/2/6
f 406/2/6 402/2/6 407/2/6
f 407/2/6 402/2/6 408/2/6
f 408/2/6 402/2/6 409/2/6
f 409/2/6 402/2/6 410/2/6
f 404/2/6 405/2/6 411/2/6
f 411/2/6 405/2/6 412/2/6
f 408/2/6 409/2/6 413/2/6
f 413/2/6 409/2/6 414/2/6
f 401/2/6 403/2/6 415/2/6
f 406/2/6 407/2/6 416/2/6
f 416/2/6 407/2/6 417/2/6
f 410/2/6 402/2/6 418/2/6
f 416/2/6 417/2/6 419/2/6
f 417/2/6 418/2/6 419/2/6
f 415/2/6 416/2/6 419/2/6
f 401/2/6 415/2/6 419/2/6
f 418/2/6 402/2/6 420/2/6
f 419/2/6 418/2/6 420/2/6
f 421/2/6 422/2/6 429/2/6
f 429/2/6 422/2/6 430/2/6
f 423/2/6 424/2/6 431/2/6
f 431/2/6 424/2/6 432/2/6
f 425/2/6 426/2/6 433/2/6
f 433/2/6 426/2/6 434/2/6
f 427/2/6 428/2/6 435/2/6
f 435/2/6 428/2/6 436/2/6
f 437/2/6 438/2/6 441/2/6
f 441/2/6 438/2/6 442/2/6
f 439/2/6 440/2/6 443/2/6
f 443/2/6 440/2/6 444/2/6
