# MagicaVoxel @ Ephtracy

# group
o 

# material
mtllib Animal_Dog.mtl
usemtl palette

# normals
vn -1 0 0
vn 1 0 0
vn 0 0 1
vn 0 0 -1
vn 0 -1 0
vn 0 1 0

# texcoords
vt 0.00195313 0.5
vt 0.115234 0.5
vt 0.373047 0.5
vt 0.416016 0.5
vt 0.771484 0.5
vt 0.931641 0.5
vt 0.994141 0.5

# verts
v 0 2.3 -0.7
v 0 2.3 -1.3
v 0 2.7 -0.7
v 0 2.7 -1.3
v 0.1 2.7 -0.7
v 0.1 2.7 -1.3
v 0.1 3.2 -0.7
v 0.1 3.2 -1.3
v 0.3 3.2 -0.7
v 0.3 3.2 -1.3
v 0.3 3.3 -0.7
v 0.3 3.3 -1.3
v 0.6 2 -0.5
v 0.6 2 -2.3
v 0.6 3 -0.7
v 0.6 3 -1.3
v 0.6 3.3 -0.7
v 0.6 3.3 -1.3
v 0.6 3.4 -0.5
v 0.6 3.4 -2.3
v 0.8 1.2 -0.7
v 0.8 1.2 -1
v 0.8 1.2 -1.8
v 0.8 1.2 -2.1
v 0.8 1.3 -0.7
v 0.8 1.3 -1
v 0.8 1.3 -1.8
v 0.8 1.3 -2.1
v 0.8 1.5 -1
v 0.8 1.5 -1.8
v 0.8 1.8 -0.7
v 0.8 1.8 -2.1
v 0.8 2 -0.7
v 0.8 2 -2.1
v 0.8 2.5 -0.4
v 0.8 2.5 -0.5
v 0.8 3 -0.4
v 0.8 3 -0.5
v 0.8 3.4 -0.7
v 0.8 3.4 -2.1
v 0.8 3.6 -0.7
v 0.8 3.6 -2.1
v 1.2 2.1 -0.1
v 1.2 2.1 -0.5
v 1.2 2.5 -0.1
v 1.2 2.5 -0.4
v 1.2 2.5 -0.5
v 1.3 1.9 -0.2
v 1.3 1.9 -0.3
v 1.3 2 -0.1
v 1.3 2 -0.2
v 1.3 2 -0.3
v 1.3 2 -0.5
v 1.3 2.1 -0.1
v 1.3 2.1 -0.5
v 1.4 2.3 0
v 1.4 2.3 -0.1
v 1.4 2.5 0
v 1.4 2.5 -0.1
v 1.5 1.6 -0.6
v 1.5 1.6 -0.7
v 1.5 1.7 -0.2
v 1.5 1.7 -0.3
v 1.5 1.8 -0.6
v 1.5 1.8 -0.7
v 1.5 2 -0.2
v 1.5 2 -0.3
v 1.8 1.9 -0.2
v 1.8 1.9 -0.3
v 1.8 2 -0.2
v 1.8 2 -0.3
v 1.9 2.5 -0.4
v 1.9 2.5 -0.5
v 1.9 3 -0.4
v 1.9 3 -0.5
v 2.1 1.2 -0.7
v 2.1 1.2 -1
v 2.1 1.2 -1.8
v 2.1 1.2 -2.1
v 2.1 1.3 -0.7
v 2.1 1.3 -1
v 2.1 1.3 -1.8
v 2.1 1.3 -2.1
v 2.1 1.5 -0.7
v 2.1 1.5 -1
v 2.1 1.5 -1.8
v 2.1 1.5 -2.1
v 2.8 2.9 -0.7
v 2.8 2.9 -1.3
v 2.8 3 -0.7
v 2.8 3 -1.3
v 2.9 2.6 -0.7
v 2.9 2.6 -1.3
v 2.9 2.9 -0.7
v 2.9 2.9 -1.3
v 3 2.3 -0.7
v 3 2.3 -1.3
v 3 2.6 -0.7
v 3 2.6 -1.3
v 0.2 2.3 -0.7
v 0.2 2.3 -1.3
v 0.2 2.6 -0.7
v 0.2 2.6 -1.3
v 0.3 2.6 -0.7
v 0.3 2.6 -1.3
v 0.3 2.9 -0.7
v 0.3 2.9 -1.3
v 0.4 2.9 -0.7
v 0.4 2.9 -1.3
v 0.4 3 -0.7
v 0.4 3 -1.3
v 1.1 1.2 -0.7
v 1.1 1.2 -1
v 1.1 1.2 -1.8
v 1.1 1.2 -2.1
v 1.1 1.3 -0.7
v 1.1 1.3 -1
v 1.1 1.3 -1.8
v 1.1 1.3 -2.1
v 1.1 1.5 -0.7
v 1.1 1.5 -1
v 1.1 1.5 -1.8
v 1.1 1.5 -2.1
v 1.3 2.5 -0.4
v 1.3 2.5 -0.5
v 1.3 3 -0.4
v 1.3 3 -0.5
v 1.4 1.9 -0.2
v 1.4 1.9 -0.3
v 1.4 2 -0.2
v 1.4 2 -0.3
v 1.7 1.6 -0.6
v 1.7 1.6 -0.7
v 1.7 1.7 -0.2
v 1.7 1.7 -0.3
v 1.7 1.8 -0.6
v 1.7 1.8 -0.7
v 1.7 2 -0.2
v 1.7 2 -0.3
v 1.8 2.3 0
v 1.8 2.3 -0.1
v 1.8 2.5 0
v 1.8 2.5 -0.1
v 1.9 1.9 -0.2
v 1.9 1.9 -0.3
v 1.9 2 -0.1
v 1.9 2 -0.2
v 1.9 2 -0.3
v 1.9 2 -0.5
v 1.9 2.1 -0.1
v 1.9 2.1 -0.5
v 2 2.1 -0.1
v 2 2.1 -0.5
v 2 2.5 -0.1
v 2 2.5 -0.4
v 2 2.5 -0.5
v 2.4 1.2 -0.7
v 2.4 1.2 -1
v 2.4 1.2 -1.8
v 2.4 1.2 -2.1
v 2.4 1.3 -0.7
v 2.4 1.3 -1
v 2.4 1.3 -1.8
v 2.4 1.3 -2.1
v 2.4 1.5 -1
v 2.4 1.5 -1.8
v 2.4 1.8 -0.7
v 2.4 1.8 -2.1
v 2.4 2 -0.7
v 2.4 2 -2.1
v 2.4 2.5 -0.4
v 2.4 2.5 -0.5
v 2.4 3 -0.4
v 2.4 3 -0.5
v 2.4 3.4 -0.7
v 2.4 3.4 -2.1
v 2.4 3.6 -0.7
v 2.4 3.6 -2.1
v 2.6 2 -0.5
v 2.6 2 -2.3
v 2.6 3 -0.7
v 2.6 3 -1.3
v 2.6 3.3 -0.7
v 2.6 3.3 -1.3
v 2.6 3.4 -0.5
v 2.6 3.4 -2.3
v 2.9 3.2 -0.7
v 2.9 3.2 -1.3
v 2.9 3.3 -0.7
v 2.9 3.3 -1.3
v 3.1 2.7 -0.7
v 3.1 2.7 -1.3
v 3.1 3.2 -0.7
v 3.1 3.2 -1.3
v 3.2 2.3 -0.7
v 3.2 2.3 -1.3
v 3.2 2.7 -0.7
v 3.2 2.7 -1.3
v 1.4 2.3 0
v 1.4 2.5 0
v 1.8 2.3 0
v 1.8 2.5 0
v 1.2 2.1 -0.1
v 1.2 2.5 -0.1
v 1.3 2 -0.1
v 1.3 2.1 -0.1
v 1.4 2.3 -0.1
v 1.4 2.5 -0.1
v 1.8 2.3 -0.1
v 1.8 2.5 -0.1
v 1.9 2 -0.1
v 1.9 2.1 -0.1
v 2 2.1 -0.1
v 2 2.5 -0.1
v 1.3 1.9 -0.2
v 1.3 2 -0.2
v 1.4 1.9 -0.2
v 1.4 2 -0.2
v 1.5 1.7 -0.2
v 1.5 2 -0.2
v 1.7 1.7 -0.2
v 1.7 2 -0.2
v 1.8 1.9 -0.2
v 1.8 2 -0.2
v 1.9 1.9 -0.2
v 1.9 2 -0.2
v 0.8 2.5 -0.4
v 0.8 3 -0.4
v 0.9 2.6 -0.4
v 0.9 2.9 -0.4
v 1.1 2.8 -0.4
v 1.1 2.9 -0.4
v 1.2 2.5 -0.4
v 1.2 2.6 -0.4
v 1.2 2.8 -0.4
v 1.3 2.5 -0.4
v 1.3 3 -0.4
v 1.9 2.5 -0.4
v 1.9 3 -0.4
v 2 2.5 -0.4
v 2 2.6 -0.4
v 2 2.9 -0.4
v 2.2 2.8 -0.4
v 2.2 2.9 -0.4
v 2.3 2.6 -0.4
v 2.3 2.8 -0.4
v 2.4 2.5 -0.4
v 2.4 3 -0.4
v 0.6 2 -0.5
v 0.6 3.4 -0.5
v 0.8 2.5 -0.5
v 0.8 3 -0.5
v 1.2 2.1 -0.5
v 1.2 2.5 -0.5
v 1.3 2 -0.5
v 1.3 2.1 -0.5
v 1.3 2.5 -0.5
v 1.3 3 -0.5
v 1.9 2 -0.5
v 1.9 2.1 -0.5
v 1.9 2.5 -0.5
v 1.9 3 -0.5
v 2 2.1 -0.5
v 2 2.5 -0.5
v 2.4 2.5 -0.5
v 2.4 3 -0.5
v 2.6 2 -0.5
v 2.6 3.4 -0.5
v 1.5 1.6 -0.6
v 1.5 1.8 -0.6
v 1.7 1.6 -0.6
v 1.7 1.8 -0.6
v 0 2.3 -0.7
v 0 2.7 -0.7
v 0.1 2.7 -0.7
v 0.1 3.2 -0.7
v 0.2 2.3 -0.7
v 0.2 2.6 -0.7
v 0.3 2.6 -0.7
v 0.3 2.9 -0.7
v 0.3 3.2 -0.7
v 0.3 3.3 -0.7
v 0.4 2.9 -0.7
v 0.4 3 -0.7
v 0.6 3 -0.7
v 0.6 3.3 -0.7
v 0.8 1.2 -0.7
v 0.8 1.3 -0.7
v 0.8 1.8 -0.7
v 0.8 2 -0.7
v 0.8 3.4 -0.7
v 0.8 3.6 -0.7
v 1.1 1.2 -0.7
v 1.1 1.3 -0.7
v 1.1 1.5 -0.7
v 1.5 1.6 -0.7
v 1.5 1.8 -0.7
v 1.7 1.6 -0.7
v 1.7 1.8 -0.7
v 2.1 1.2 -0.7
v 2.1 1.3 -0.7
v 2.1 1.5 -0.7
v 2.4 1.2 -0.7
v 2.4 1.3 -0.7
v 2.4 1.8 -0.7
v 2.4 2 -0.7
v 2.4 3.4 -0.7
v 2.4 3.6 -0.7
v 2.6 3 -0.7
v 2.6 3.3 -0.7
v 2.8 2.9 -0.7
v 2.8 3 -0.7
v 2.9 2.6 -0.7
v 2.9 2.9 -0.7
v 2.9 3.2 -0.7
v 2.9 3.3 -0.7
v 3 2.3 -0.7
v 3 2.6 -0.7
v 3.1 2.7 -0.7
v 3.1 3.2 -0.7
v 3.2 2.3 -0.7
v 3.2 2.7 -0.7
v 0.8 1.2 -1.8
v 0.8 1.3 -1.8
v 0.8 1.5 -1.8
v 1.1 1.2 -1.8
v 1.1 1.3 -1.8
v 1.1 1.5 -1.8
v 2.1 1.2 -1.8
v 2.1 1.3 -1.8
v 2.1 1.5 -1.8
v 2.4 1.2 -1.8
v 2.4 1.3 -1.8
v 2.4 1.5 -1.8
v 1.3 1.9 -0.3
v 1.3 2 -0.3
v 1.4 1.9 -0.3
v 1.4 2 -0.3
v 1.5 1.7 -0.3
v 1.5 2 -0.3
v 1.7 1.7 -0.3
v 1.7 2 -0.3
v 1.8 1.9 -0.3
v 1.8 2 -0.3
v 1.9 1.9 -0.3
v 1.9 2 -0.3
v 0.8 1.2 -1
v 0.8 1.3 -1
v 0.8 1.5 -1
v 1.1 1.2 -1
v 1.1 1.3 -1
v 1.1 1.5 -1
v 2.1 1.2 -1
v 2.1 1.3 -1
v 2.1 1.5 -1
v 2.4 1.2 -1
v 2.4 1.3 -1
v 2.4 1.5 -1
v 0 2.3 -1.3
v 0 2.7 -1.3
v 0.1 2.7 -1.3
v 0.1 3.2 -1.3
v 0.2 2.3 -1.3
v 0.2 2.6 -1.3
v 0.3 2.6 -1.3
v 0.3 2.9 -1.3
v 0.3 3.2 -1.3
v 0.3 3.3 -1.3
v 0.4 2.9 -1.3
v 0.4 3 -1.3
v 0.6 3 -1.3
v 0.6 3.3 -1.3
v 2.6 3 -1.3
v 2.6 3.3 -1.3
v 2.8 2.9 -1.3
v 2.8 3 -1.3
v 2.9 2.6 -1.3
v 2.9 2.9 -1.3
v 2.9 3.2 -1.3
v 2.9 3.3 -1.3
v 3 2.3 -1.3
v 3 2.6 -1.3
v 3.1 2.7 -1.3
v 3.1 3.2 -1.3
v 3.2 2.3 -1.3
v 3.2 2.7 -1.3
v 0.8 1.2 -2.1
v 0.8 1.3 -2.1
v 0.8 1.8 -2.1
v 0.8 2 -2.1
v 0.8 3.4 -2.1
v 0.8 3.6 -2.1
v 1.1 1.2 -2.1
v 1.1 1.3 -2.1
v 1.1 1.5 -2.1
v 2.1 1.2 -2.1
v 2.1 1.3 -2.1
v 2.1 1.5 -2.1
v 2.4 1.2 -2.1
v 2.4 1.3 -2.1
v 2.4 1.8 -2.1
v 2.4 2 -2.1
v 2.4 3.4 -2.1
v 2.4 3.6 -2.1
v 0.6 2 -2.3
v 0.6 3.4 -2.3
v 2.6 2 -2.3
v 2.6 3.4 -2.3
v 0.8 1.2 -0.7
v 1.1 1.2 -0.7
v 2.1 1.2 -0.7
v 2.4 1.2 -0.7
v 0.8 1.2 -1
v 1.1 1.2 -1
v 2.1 1.2 -1
v 2.4 1.2 -1
v 0.8 1.2 -1.8
v 1.1 1.2 -1.8
v 2.1 1.2 -1.8
v 2.4 1.2 -1.8
v 0.8 1.2 -2.1
v 1.1 1.2 -2.1
v 2.1 1.2 -2.1
v 2.4 1.2 -2.1
v 1.1 1.5 -0.7
v 2.1 1.5 -0.7
v 0.8 1.5 -1
v 1.1 1.5 -1
v 2.1 1.5 -1
v 2.4 1.5 -1
v 0.8 1.5 -1.8
v 1.1 1.5 -1.8
v 2.1 1.5 -1.8
v 2.4 1.5 -1.8
v 1.1 1.5 -2.1
v 2.1 1.5 -2.1
v 1.5 1.6 -0.6
v 1.7 1.6 -0.6
v 1.5 1.6 -0.7
v 1.7 1.6 -0.7
v 1.5 1.7 -0.2
v 1.7 1.7 -0.2
v 1.5 1.7 -0.3
v 1.7 1.7 -0.3
v 1.3 1.9 -0.2
v 1.4 1.9 -0.2
v 1.8 1.9 -0.2
v 1.9 1.9 -0.2
v 1.3 1.9 -0.3
v 1.4 1.9 -0.3
v 1.8 1.9 -0.3
v 1.9 1.9 -0.3
v 1.3 2 -0.1
v 1.9 2 -0.1
v 1.3 2 -0.2
v 1.4 2 -0.2
v 1.5 2 -0.2
v 1.7 2 -0.2
v 1.8 2 -0.2
v 1.9 2 -0.2
v 1.3 2 -0.3
v 1.4 2 -0.3
v 1.5 2 -0.3
v 1.7 2 -0.3
v 1.8 2 -0.3
v 1.9 2 -0.3
v 0.6 2 -0.5
v 1.3 2 -0.5
v 1.9 2 -0.5
v 2.6 2 -0.5
v 0.8 2 -0.7
v 2.4 2 -0.7
v 0.8 2 -2.1
v 2.4 2 -2.1
v 0.6 2 -2.3
v 2.6 2 -2.3
v 1.2 2.1 -0.1
v 1.3 2.1 -0.1
v 1.9 2.1 -0.1
v 2 2.1 -0.1
v 1.2 2.1 -0.5
v 1.3 2.1 -0.5
v 1.9 2.1 -0.5
v 2 2.1 -0.5
v 1.4 2.3 0
v 1.8 2.3 0
v 1.4 2.3 -0.1
v 1.8 2.3 -0.1
v 0 2.3 -0.7
v 0.2 2.3 -0.7
v 3 2.3 -0.7
v 3.2 2.3 -0.7
v 0 2.3 -1.3
v 0.2 2.3 -1.3
v 3 2.3 -1.3
v 3.2 2.3 -1.3
v 0.8 2.5 -0.4
v 1.2 2.5 -0.4
v 2 2.5 -0.4
v 2.4 2.5 -0.4
v 0.8 2.5 -0.5
v 1.2 2.5 -0.5
v 2 2.5 -0.5
v 2.4 2.5 -0.5
v 0.2 2.6 -0.7
v 0.3 2.6 -0.7
v 2.9 2.6 -0.7
v 3 2.6 -0.7
v 0.2 2.6 -1.3
v 0.3 2.6 -1.3
v 2.9 2.6 -1.3
v 3 2.6 -1.3
v 0.3 2.9 -0.7
v 0.4 2.9 -0.7
v 2.8 2.9 -0.7
v 2.9 2.9 -0.7
v 0.3 2.9 -1.3
v 0.4 2.9 -1.3
v 2.8 2.9 -1.3
v 2.9 2.9 -1.3
v 0.4 3 -0.7
v 0.6 3 -0.7
v 2.6 3 -0.7
v 2.8 3 -0.7
v 0.4 3 -1.3
v 0.6 3 -1.3
v 2.6 3 -1.3
v 2.8 3 -1.3
v 1.5 1.8 -0.6
v 1.7 1.8 -0.6
v 1.5 1.8 -0.7
v 1.7 1.8 -0.7
v 1.4 2.5 0
v 1.8 2.5 0
v 1.2 2.5 -0.1
v 1.4 2.5 -0.1
v 1.5 2.5 -0.1
v 1.7 2.5 -0.1
v 1.8 2.5 -0.1
v 2 2.5 -0.1
v 1.5 2.5 -0.2
v 1.7 2.5 -0.2
v 1.2 2.5 -0.4
v 1.3 2.5 -0.4
v 1.9 2.5 -0.4
v 2 2.5 -0.4
v 1.3 2.5 -0.5
v 1.9 2.5 -0.5
v 0 2.7 -0.7
v 0.1 2.7 -0.7
v 3.1 2.7 -0.7
v 3.2 2.7 -0.7
v 0 2.7 -1.3
v 0.1 2.7 -1.3
v 3.1 2.7 -1.3
v 3.2 2.7 -1.3
v 0.8 3 -0.4
v 1.3 3 -0.4
v 1.9 3 -0.4
v 2.4 3 -0.4
v 0.8 3 -0.5
v 1.3 3 -0.5
v 1.9 3 -0.5
v 2.4 3 -0.5
v 0.1 3.2 -0.7
v 0.3 3.2 -0.7
v 2.9 3.2 -0.7
v 3.1 3.2 -0.7
v 0.1 3.2 -1.3
v 0.3 3.2 -1.3
v 2.9 3.2 -1.3
v 3.1 3.2 -1.3
v 0.3 3.3 -0.7
v 0.6 3.3 -0.7
v 2.6 3.3 -0.7
v 2.9 3.3 -0.7
v 0.3 3.3 -1.3
v 0.6 3.3 -1.3
v 2.6 3.3 -1.3
v 2.9 3.3 -1.3
v 0.6 3.4 -0.5
v 2.6 3.4 -0.5
v 0.8 3.4 -0.7
v 2.4 3.4 -0.7
v 0.8 3.4 -2.1
v 2.4 3.4 -2.1
v 0.6 3.4 -2.3
v 2.6 3.4 -2.3
v 0.8 3.6 -0.7
v 2.4 3.6 -0.7
v 0.8 3.6 -2.1
v 2.4 3.6 -2.1

# faces
f 3/3/1 2/3/1 1/3/1
f 4/3/1 2/3/1 3/3/1
f 7/3/1 6/3/1 5/3/1
f 8/3/1 6/3/1 7/3/1
f 11/3/1 10/3/1 9/3/1
f 12/3/1 10/3/1 11/3/1
f 15/3/1 14/3/1 13/3/1
f 16/3/1 14/3/1 15/3/1
f 17/3/1 15/3/1 13/3/1
f 18/3/1 14/3/1 16/3/1
f 19/3/1 17/3/1 13/3/1
f 19/3/1 18/3/1 17/3/1
f 20/3/1 14/3/1 18/3/1
f 20/3/1 18/3/1 19/3/1
f 25/1/1 22/1/1 21/1/1
f 26/1/1 22/1/1 25/1/1
f 27/1/1 24/1/1 23/1/1
f 28/1/1 24/1/1 27/1/1
f 29/3/1 26/3/1 25/3/1
f 30/3/1 28/3/1 27/3/1
f 31/3/1 29/3/1 25/3/1
f 31/3/1 30/3/1 29/3/1
f 32/3/1 28/3/1 30/3/1
f 32/3/1 30/3/1 31/3/1
f 33/5/1 32/5/1 31/5/1
f 34/5/1 32/5/1 33/5/1
f 37/1/1 36/1/1 35/1/1
f 38/1/1 36/1/1 37/1/1
f 41/3/1 40/3/1 39/3/1
f 42/3/1 40/3/1 41/3/1
f 45/4/1 44/4/1 43/4/1
f 46/4/1 44/4/1 45/4/1
f 47/4/1 44/4/1 46/4/1
f 51/1/1 49/1/1 48/1/1
f 52/1/1 49/1/1 51/1/1
f 54/4/1 51/4/1 50/4/1
f 54/4/1 53/4/1 52/4/1
f 54/4/1 52/4/1 51/4/1
f 55/4/1 53/4/1 54/4/1
f 58/7/1 57/7/1 56/7/1
f 59/7/1 57/7/1 58/7/1
f 64/6/1 61/6/1 60/6/1
f 65/6/1 61/6/1 64/6/1
f 66/2/1 63/2/1 62/2/1
f 67/2/1 63/2/1 66/2/1
f 70/1/1 69/1/1 68/1/1
f 71/1/1 69/1/1 70/1/1
f 74/1/1 73/1/1 72/1/1
f 75/1/1 73/1/1 74/1/1
f 80/1/1 77/1/1 76/1/1
f 81/1/1 77/1/1 80/1/1
f 82/1/1 79/1/1 78/1/1
f 83/1/1 79/1/1 82/1/1
f 84/3/1 81/3/1 80/3/1
f 85/3/1 81/3/1 84/3/1
f 86/3/1 83/3/1 82/3/1
f 87/3/1 83/3/1 86/3/1
f 90/3/1 89/3/1 88/3/1
f 91/3/1 89/3/1 90/3/1
f 94/3/1 93/3/1 92/3/1
f 95/3/1 93/3/1 94/3/1
f 98/3/1 97/3/1 96/3/1
f 99/3/1 97/3/1 98/3/1
f 100/3/2 101/3/2 102/3/2
f 102/3/2 101/3/2 103/3/2
f 104/3/2 105/3/2 106/3/2
f 106/3/2 105/3/2 107/3/2
f 108/3/2 109/3/2 110/3/2
f 110/3/2 109/3/2 111/3/2
f 112/1/2 113/1/2 116/1/2
f 116/1/2 113/1/2 117/1/2
f 114/1/2 115/1/2 118/1/2
f 118/1/2 115/1/2 119/1/2
f 116/3/2 117/3/2 120/3/2
f 120/3/2 117/3/2 121/3/2
f 118/3/2 119/3/2 122/3/2
f 122/3/2 119/3/2 123/3/2
f 124/1/2 125/1/2 126/1/2
f 126/1/2 125/1/2 127/1/2
f 128/1/2 129/1/2 130/1/2
f 130/1/2 129/1/2 131/1/2
f 132/6/2 133/6/2 136/6/2
f 136/6/2 133/6/2 137/6/2
f 134/2/2 135/2/2 138/2/2
f 138/2/2 135/2/2 139/2/2
f 140/7/2 141/7/2 142/7/2
f 142/7/2 141/7/2 143/7/2
f 144/1/2 145/1/2 147/1/2
f 147/1/2 145/1/2 148/1/2
f 146/4/2 147/4/2 150/4/2
f 148/4/2 149/4/2 150/4/2
f 147/4/2 148/4/2 150/4/2
f 150/4/2 149/4/2 151/4/2
f 152/4/2 153/4/2 154/4/2
f 154/4/2 153/4/2 155/4/2
f 155/4/2 153/4/2 156/4/2
f 157/1/2 158/1/2 161/1/2
f 161/1/2 158/1/2 162/1/2
f 159/1/2 160/1/2 163/1/2
f 163/1/2 160/1/2 164/1/2
f 161/3/2 162/3/2 165/3/2
f 163/3/2 164/3/2 166/3/2
f 161/3/2 165/3/2 167/3/2
f 165/3/2 166/3/2 167/3/2
f 166/3/2 164/3/2 168/3/2
f 167/3/2 166/3/2 168/3/2
f 167/5/2 168/5/2 169/5/2
f 169/5/2 168/5/2 170/5/2
f 171/1/2 172/1/2 173/1/2
f 173/1/2 172/1/2 174/1/2
f 175/3/2 176/3/2 177/3/2
f 177/3/2 176/3/2 178/3/2
f 179/3/2 180/3/2 181/3/2
f 181/3/2 180/3/2 182/3/2
f 179/3/2 181/3/2 183/3/2
f 182/3/2 180/3/2 184/3/2
f 179/3/2 183/3/2 185/3/2
f 183/3/2 184/3/2 185/3/2
f 184/3/2 180/3/2 186/3/2
f 185/3/2 184/3/2 186/3/2
f 187/3/2 188/3/2 189/3/2
f 189/3/2 188/3/2 190/3/2
f 191/3/2 192/3/2 193/3/2
f 193/3/2 192/3/2 194/3/2
f 195/3/2 196/3/2 197/3/2
f 197/3/2 196/3/2 198/3/2
f 201/7/3 200/7/3 199/7/3
f 202/7/3 200/7/3 201/7/3
f 206/4/3 204/4/3 203/4/3
f 207/4/3 204/4/3 206/4/3
f 207/4/3 206/4/3 205/4/3
f 208/4/3 204/4/3 207/4/3
f 209/4/3 207/4/3 205/4/3
f 211/4/3 209/4/3 205/4/3
f 211/4/3 210/4/3 209/4/3
f 212/4/3 210/4/3 211/4/3
f 213/4/3 210/4/3 212/4/3
f 214/4/3 210/4/3 213/4/3
f 217/1/3 216/1/3 215/1/3
f 218/1/3 216/1/3 217/1/3
f 221/2/3 220/2/3 219/2/3
f 222/2/3 220/2/3 221/2/3
f 225/1/3 224/1/3 223/1/3
f 226/1/3 224/1/3 225/1/3
f 229/1/3 228/1/3 227/1/3
f 230/1/3 228/1/3 229/1/3
f 231/7/3 230/7/3 229/7/3
f 232/1/3 228/1/3 230/1/3
f 232/7/3 230/7/3 231/7/3
f 233/1/3 229/1/3 227/1/3
f 234/7/3 231/7/3 229/7/3
f 234/1/3 229/1/3 233/1/3
f 235/1/3 232/1/3 231/1/3
f 235/7/3 231/7/3 234/7/3
f 236/1/3 234/1/3 233/1/3
f 236/1/3 235/1/3 234/1/3
f 237/1/3 228/1/3 232/1/3
f 237/1/3 235/1/3 236/1/3
f 237/1/3 232/1/3 235/1/3
f 240/1/3 239/1/3 238/1/3
f 241/1/3 239/1/3 240/1/3
f 242/1/3 239/1/3 241/1/3
f 243/7/3 242/7/3 241/7/3
f 244/1/3 239/1/3 242/1/3
f 244/7/3 242/7/3 243/7/3
f 245/1/3 241/1/3 240/1/3
f 245/7/3 243/7/3 241/7/3
f 246/1/3 244/1/3 243/1/3
f 246/7/3 243/7/3 245/7/3
f 247/1/3 245/1/3 240/1/3
f 247/1/3 246/1/3 245/1/3
f 248/1/3 239/1/3 244/1/3
f 248/1/3 246/1/3 247/1/3
f 248/1/3 244/1/3 246/1/3
f 251/3/3 250/3/3 249/3/3
f 252/3/3 250/3/3 251/3/3
f 253/3/3 251/3/3 249/3/3
f 254/3/3 251/3/3 253/3/3
f 255/3/3 253/3/3 249/3/3
f 256/3/3 253/3/3 255/3/3
f 258/3/3 250/3/3 252/3/3
f 261/3/3 258/3/3 257/3/3
f 262/3/3 250/3/3 258/3/3
f 262/3/3 258/3/3 261/3/3
f 263/3/3 260/3/3 259/3/3
f 265/3/3 264/3/3 263/3/3
f 266/3/3 250/3/3 262/3/3
f 267/3/3 265/3/3 263/3/3
f 267/3/3 266/3/3 265/3/3
f 267/3/3 263/3/3 259/3/3
f 268/3/3 250/3/3 266/3/3
f 268/3/3 266/3/3 267/3/3
f 271/6/3 270/6/3 269/6/3
f 272/6/3 270/6/3 271/6/3
f 275/3/3 274/3/3 273/3/3
f 277/3/3 275/3/3 273/3/3
f 277/3/3 276/3/3 275/3/3
f 278/3/3 276/3/3 277/3/3
f 279/3/3 276/3/3 278/3/3
f 280/3/3 276/3/3 279/3/3
f 281/3/3 276/3/3 280/3/3
f 283/3/3 282/3/3 281/3/3
f 283/3/3 281/3/3 280/3/3
f 284/3/3 282/3/3 283/3/3
f 285/3/3 282/3/3 284/3/3
f 286/3/3 282/3/3 285/3/3
f 293/1/3 288/1/3 287/1/3
f 294/3/3 289/3/3 288/3/3
f 294/1/3 288/1/3 293/1/3
f 295/3/3 289/3/3 294/3/3
f 296/3/3 289/3/3 295/3/3
f 297/5/3 290/5/3 289/5/3
f 297/3/3 289/3/3 296/3/3
f 298/3/3 296/3/3 295/3/3
f 299/5/3 290/5/3 297/5/3
f 302/3/3 298/3/3 295/3/3
f 302/3/3 299/3/3 298/3/3
f 303/1/3 301/1/3 300/1/3
f 304/3/3 302/3/3 301/3/3
f 304/1/3 301/1/3 303/1/3
f 305/5/3 290/5/3 299/5/3
f 305/3/3 302/3/3 304/3/3
f 305/3/3 299/3/3 302/3/3
f 306/5/3 290/5/3 305/5/3
f 307/3/3 292/3/3 291/3/3
f 308/3/3 292/3/3 307/3/3
f 312/3/3 310/3/3 309/3/3
f 314/3/3 312/3/3 311/3/3
f 315/3/3 310/3/3 312/3/3
f 315/3/3 312/3/3 314/3/3
f 316/3/3 310/3/3 315/3/3
f 318/3/3 314/3/3 313/3/3
f 318/3/3 315/3/3 314/3/3
f 319/3/3 315/3/3 318/3/3
f 319/3/3 318/3/3 317/3/3
f 320/3/3 315/3/3 319/3/3
f 321/3/3 319/3/3 317/3/3
f 322/3/3 319/3/3 321/3/3
f 326/1/3 324/1/3 323/1/3
f 327/3/3 325/3/3 324/3/3
f 327/1/3 324/1/3 326/1/3
f 328/3/3 325/3/3 327/3/3
f 332/1/3 330/1/3 329/1/3
f 333/3/3 331/3/3 330/3/3
f 333/1/3 330/1/3 332/1/3
f 334/3/3 331/3/3 333/3/3
f 335/1/4 336/1/4 337/1/4
f 337/1/4 336/1/4 338/1/4
f 339/2/4 340/2/4 341/2/4
f 341/2/4 340/2/4 342/2/4
f 343/1/4 344/1/4 345/1/4
f 345/1/4 344/1/4 346/1/4
f 347/1/4 348/1/4 350/1/4
f 348/3/4 349/3/4 351/3/4
f 350/1/4 348/1/4 351/1/4
f 351/3/4 349/3/4 352/3/4
f 353/1/4 354/1/4 356/1/4
f 354/3/4 355/3/4 357/3/4
f 356/1/4 354/1/4 357/1/4
f 357/3/4 355/3/4 358/3/4
f 359/3/4 360/3/4 361/3/4
f 359/3/4 361/3/4 363/3/4
f 361/3/4 362/3/4 363/3/4
f 363/3/4 362/3/4 364/3/4
f 364/3/4 362/3/4 365/3/4
f 365/3/4 362/3/4 366/3/4
f 366/3/4 362/3/4 367/3/4
f 367/3/4 368/3/4 369/3/4
f 366/3/4 367/3/4 369/3/4
f 369/3/4 368/3/4 370/3/4
f 370/3/4 368/3/4 371/3/4
f 371/3/4 368/3/4 372/3/4
f 373/3/4 374/3/4 376/3/4
f 375/3/4 376/3/4 378/3/4
f 376/3/4 374/3/4 379/3/4
f 378/3/4 376/3/4 379/3/4
f 379/3/4 374/3/4 380/3/4
f 377/3/4 378/3/4 382/3/4
f 378/3/4 379/3/4 382/3/4
f 382/3/4 379/3/4 383/3/4
f 381/3/4 382/3/4 383/3/4
f 383/3/4 379/3/4 384/3/4
f 381/3/4 383/3/4 385/3/4
f 385/3/4 383/3/4 386/3/4
f 387/1/4 388/1/4 393/1/4
f 388/3/4 389/3/4 394/3/4
f 393/1/4 388/1/4 394/1/4
f 394/3/4 389/3/4 395/3/4
f 395/3/4 389/3/4 398/3/4
f 396/1/4 397/1/4 399/1/4
f 397/3/4 398/3/4 400/3/4
f 399/1/4 397/1/4 400/1/4
f 389/5/4 390/5/4 401/5/4
f 400/3/4 398/3/4 401/3/4
f 398/3/4 389/3/4 401/3/4
f 401/5/4 390/5/4 402/5/4
f 391/3/4 392/3/4 403/3/4
f 403/3/4 392/3/4 404/3/4
f 405/3/4 406/3/4 407/3/4
f 407/3/4 406/3/4 408/3/4
f 413/1/5 410/1/5 409/1/5
f 414/1/5 410/1/5 413/1/5
f 415/1/5 412/1/5 411/1/5
f 416/1/5 412/1/5 415/1/5
f 421/1/5 418/1/5 417/1/5
f 422/1/5 418/1/5 421/1/5
f 423/1/5 420/1/5 419/1/5
f 424/1/5 420/1/5 423/1/5
f 428/3/5 426/3/5 425/3/5
f 429/3/5 426/3/5 428/3/5
f 431/3/5 428/3/5 427/3/5
f 431/3/5 430/3/5 429/3/5
f 431/3/5 429/3/5 428/3/5
f 432/3/5 430/3/5 431/3/5
f 433/3/5 430/3/5 432/3/5
f 434/3/5 430/3/5 433/3/5
f 435/3/5 433/3/5 432/3/5
f 436/3/5 433/3/5 435/3/5
f 439/6/5 438/6/5 437/6/5
f 440/6/5 438/6/5 439/6/5
f 443/2/5 442/2/5 441/2/5
f 444/2/5 442/2/5 443/2/5
f 449/1/5 446/1/5 445/1/5
f 450/1/5 446/1/5 449/1/5
f 451/1/5 448/1/5 447/1/5
f 452/1/5 448/1/5 451/1/5
f 455/4/5 454/4/5 453/4/5
f 456/4/5 454/4/5 455/4/5
f 457/4/5 454/4/5 456/4/5
f 458/4/5 454/4/5 457/4/5
f 459/4/5 454/4/5 458/4/5
f 460/4/5 454/4/5 459/4/5
f 462/3/5 457/3/5 456/3/5
f 463/3/5 457/3/5 462/3/5
f 464/3/5 459/3/5 458/3/5
f 465/3/5 459/3/5 464/3/5
f 468/4/5 463/4/5 462/4/5
f 468/4/5 466/4/5 465/4/5
f 468/4/5 465/4/5 464/4/5
f 468/4/5 464/4/5 463/4/5
f 468/4/5 462/4/5 461/4/5
f 469/4/5 466/4/5 468/4/5
f 471/3/5 469/3/5 468/3/5
f 471/3/5 470/3/5 469/3/5
f 471/3/5 468/3/5 467/3/5
f 472/3/5 470/3/5 471/3/5
f 473/3/5 471/3/5 467/3/5
f 474/3/5 470/3/5 472/3/5
f 475/3/5 473/3/5 467/3/5
f 475/3/5 474/3/5 473/3/5
f 476/3/5 470/3/5 474/3/5
f 476/3/5 474/3/5 475/3/5
f 481/4/5 478/4/5 477/4/5
f 482/4/5 478/4/5 481/4/5
f 483/4/5 480/4/5 479/4/5
f 484/4/5 480/4/5 483/4/5
f 487/7/5 486/7/5 485/7/5
f 488/7/5 486/7/5 487/7/5
f 493/3/5 490/3/5 489/3/5
f 494/3/5 490/3/5 493/3/5
f 495/3/5 492/3/5 491/3/5
f 496/3/5 492/3/5 495/3/5
f 501/1/5 498/1/5 497/1/5
f 502/1/5 498/1/5 501/1/5
f 503/1/5 500/1/5 499/1/5
f 504/1/5 500/1/5 503/1/5
f 509/3/5 506/3/5 505/3/5
f 510/3/5 506/3/5 509/3/5
f 511/3/5 508/3/5 507/3/5
f 512/3/5 508/3/5 511/3/5
f 517/3/5 514/3/5 513/3/5
f 518/3/5 514/3/5 517/3/5
f 519/3/5 516/3/5 515/3/5
f 520/3/5 516/3/5 519/3/5
f 525/3/5 522/3/5 521/3/5
f 526/3/5 522/3/5 525/3/5
f 527/3/5 524/3/5 523/3/5
f 528/3/5 524/3/5 527/3/5
f 529/6/6 530/6/6 531/6/6
f 531/6/6 530/6/6 532/6/6
f 533/7/6 534/7/6 536/7/6
f 536/7/6 534/7/6 537/7/6
f 537/7/6 534/7/6 538/7/6
f 538/7/6 534/7/6 539/7/6
f 535/4/6 536/4/6 541/4/6
f 536/4/6 537/4/6 541/4/6
f 537/7/6 538/7/6 541/7/6
f 539/4/6 540/4/6 542/4/6
f 541/7/6 538/7/6 542/7/6
f 538/4/6 539/4/6 542/4/6
f 535/4/6 541/4/6 543/4/6
f 541/4/6 542/4/6 543/4/6
f 543/4/6 542/4/6 544/4/6
f 542/4/6 540/4/6 545/4/6
f 544/4/6 542/4/6 545/4/6
f 545/4/6 540/4/6 546/4/6
f 544/4/6 545/4/6 547/4/6
f 547/4/6 545/4/6 548/4/6
f 549/3/6 550/3/6 553/3/6
f 553/3/6 550/3/6 554/3/6
f 551/3/6 552/3/6 555/3/6
f 555/3/6 552/3/6 556/3/6
f 557/1/6 558/1/6 561/1/6
f 561/1/6 558/1/6 562/1/6
f 559/1/6 560/1/6 563/1/6
f 563/1/6 560/1/6 564/1/6
f 565/3/6 566/3/6 569/3/6
f 569/3/6 566/3/6 570/3/6
f 567/3/6 568/3/6 571/3/6
f 571/3/6 568/3/6 572/3/6
f 573/3/6 574/3/6 577/3/6
f 577/3/6 574/3/6 578/3/6
f 575/3/6 576/3/6 579/3/6
f 579/3/6 576/3/6 580/3/6
f 581/3/6 582/3/6 583/3/6
f 583/3/6 582/3/6 584/3/6
f 581/3/6 583/3/6 585/3/6
f 584/3/6 582/3/6 586/3/6
f 581/3/6 585/3/6 587/3/6
f 585/3/6 586/3/6 587/3/6
f 586/3/6 582/3/6 588/3/6
f 587/3/6 586/3/6 588/3/6
f 589/3/6 590/3/6 591/3/6
f 591/3/6 590/3/6 592/3/6
