# MagicaVoxel @ Ephtracy

# group
o 

# material
mtllib Ground_Tree4.mtl
usemtl palette

# normals
vn -1 0 0
vn 1 0 0
vn 0 0 1
vn 0 0 -1
vn 0 -1 0
vn 0 1 0

# texcoords
vt 0.150391 0.5
vt 0.208984 0.5
vt 0.248047 0.5
vt 0.345703 0.5
vt 0.541016 0.5

# verts
v -0.1 4.9 0
v -0.1 4.9 -2
v -0.1 6.2 0
v -0.1 6.2 -2
v -0.1 7.3 0
v -0.1 7.3 -2
v -0.1 8.5 0
v -0.1 8.5 -2
v 0.7 2.8 -0.8
v 0.7 2.8 -1.3
v 0.7 3.7 -0.8
v 0.7 3.7 -1.3
v 0.7 4.6 -0.8
v 0.7 4.6 -1.3
v 0.7 4.9 -0.8
v 0.7 4.9 -1.3
v 1.2 2.8 -0.8
v 1.2 2.8 -1.3
v 1.2 3.7 -0.8
v 1.2 3.7 -1.3
v 1.2 4.6 -0.8
v 1.2 4.6 -1.3
v 1.2 4.9 -0.8
v 1.2 4.9 -1.3
v 2 4.9 0
v 2 4.9 -2
v 2 6.2 0
v 2 6.2 -2
v 2 7.3 0
v 2 7.3 -2
v 2 8.5 0
v 2 8.5 -2
v -0.1 4.9 0
v -0.1 6.2 0
v -0.1 7.3 0
v -0.1 8.5 0
v 2 4.9 0
v 2 6.2 0
v 2 7.3 0
v 2 8.5 0
v 0.7 2.8 -0.8
v 0.7 3.7 -0.8
v 0.7 4.6 -0.8
v 0.7 4.9 -0.8
v 1.2 2.8 -0.8
v 1.2 3.7 -0.8
v 1.2 4.6 -0.8
v 1.2 4.9 -0.8
v 0.7 2.8 -1.3
v 0.7 3.7 -1.3
v 0.7 4.6 -1.3
v 0.7 4.9 -1.3
v 1.2 2.8 -1.3
v 1.2 3.7 -1.3
v 1.2 4.6 -1.3
v 1.2 4.9 -1.3
v -0.1 4.9 -2
v -0.1 6.2 -2
v -0.1 7.3 -2
v -0.1 8.5 -2
v 2 4.9 -2
v 2 6.2 -2
v 2 7.3 -2
v 2 8.5 -2
v 0.7 2.8 -0.8
v 1.2 2.8 -0.8
v 0.7 2.8 -1.3
v 1.2 2.8 -1.3
v -0.1 4.9 0
v 2 4.9 0
v 0.7 4.9 -0.8
v 1.2 4.9 -0.8
v 0.7 4.9 -1.3
v 1.2 4.9 -1.3
v -0.1 4.9 -2
v 2 4.9 -2
v -0.1 8.5 0
v 2 8.5 0
v -0.1 8.5 -2
v 2 8.5 -2

# faces
f 3/1/1 2/1/1 1/1/1
f 4/1/1 2/1/1 3/1/1
f 5/4/1 4/4/1 3/4/1
f 6/4/1 4/4/1 5/4/1
f 7/1/1 6/1/1 5/1/1
f 8/1/1 6/1/1 7/1/1
f 11/3/1 10/3/1 9/3/1
f 12/3/1 10/3/1 11/3/1
f 13/2/1 12/2/1 11/2/1
f 14/2/1 12/2/1 13/2/1
f 15/3/1 14/3/1 13/3/1
f 16/3/1 14/3/1 15/3/1
f 17/3/2 18/3/2 19/3/2
f 19/3/2 18/3/2 20/3/2
f 19/2/2 20/2/2 21/2/2
f 21/2/2 20/2/2 22/2/2
f 21/3/2 22/3/2 23/3/2
f 23/3/2 22/3/2 24/3/2
f 25/1/2 26/1/2 27/1/2
f 27/1/2 26/1/2 28/1/2
f 27/4/2 28/4/2 29/4/2
f 29/4/2 28/4/2 30/4/2
f 29/1/2 30/1/2 31/1/2
f 31/1/2 30/1/2 32/1/2
f 37/1/3 34/1/3 33/1/3
f 38/4/3 35/4/3 34/4/3
f 38/1/3 34/1/3 37/1/3
f 39/1/3 36/1/3 35/1/3
f 39/4/3 35/4/3 38/4/3
f 40/1/3 36/1/3 39/1/3
f 45/3/3 42/3/3 41/3/3
f 46/2/3 43/2/3 42/2/3
f 46/3/3 42/3/3 45/3/3
f 47/3/3 44/3/3 43/3/3
f 47/2/3 43/2/3 46/2/3
f 48/3/3 44/3/3 47/3/3
f 49/3/4 50/3/4 53/3/4
f 50/2/4 51/2/4 54/2/4
f 53/3/4 50/3/4 54/3/4
f 51/3/4 52/3/4 55/3/4
f 54/2/4 51/2/4 55/2/4
f 55/3/4 52/3/4 56/3/4
f 57/1/4 58/1/4 61/1/4
f 58/4/4 59/4/4 62/4/4
f 61/1/4 58/1/4 62/1/4
f 59/1/4 60/1/4 63/1/4
f 62/4/4 59/4/4 63/4/4
f 63/1/4 60/1/4 64/1/4
f 67/3/5 66/3/5 65/3/5
f 68/3/5 66/3/5 67/3/5
f 71/1/5 70/1/5 69/1/5
f 72/1/5 70/1/5 71/1/5
f 73/1/5 71/1/5 69/1/5
f 74/1/5 70/1/5 72/1/5
f 75/1/5 73/1/5 69/1/5
f 75/1/5 74/1/5 73/1/5
f 76/1/5 70/1/5 74/1/5
f 76/1/5 74/1/5 75/1/5
f 77/1/6 78/1/6 79/1/6
f 79/1/6 78/1/6 80/1/6
