# MagicaVoxel @ Ephtracy

# group
o 

# material
mtllib Ground_Tree6.mtl
usemtl palette

# normals
vn -1 0 0
vn 1 0 0
vn 0 0 1
vn 0 0 -1
vn 0 -1 0
vn 0 1 0

# texcoords
vt 0.0722656 0.5
vt 0.208984 0.5
vt 0.248047 0.5
vt 0.388672 0.5
vt 0.556641 0.5
vt 0.693359 0.5

# verts
v 0 4.1 0
v 0 4.1 -2.2
v 0 5.3 0
v 0 5.3 -2.2
v 0.2 5.3 -0.2
v 0.2 5.3 -2
v 0.2 6.2 -0.2
v 0.2 6.2 -2
v 0.3 6.2 -0.3
v 0.3 6.2 -1.9
v 0.3 7 -0.3
v 0.3 7 -1.9
v 0.3 7.7 -0.3
v 0.3 7.7 -1.9
v 0.5 7.7 -0.5
v 0.5 7.7 -1.7
v 0.5 8.1 -0.5
v 0.5 8.1 -1.7
v 0.9 2.7 -0.9
v 0.9 2.7 -1.4
v 0.9 2.8 -0.9
v 0.9 2.8 -1.4
v 0.9 3.7 -0.9
v 0.9 3.7 -1.4
v 0.9 4.1 -0.9
v 0.9 4.1 -1.4
v 1.4 2.7 -0.9
v 1.4 2.7 -1.4
v 1.4 2.8 -0.9
v 1.4 2.8 -1.4
v 1.4 3.7 -0.9
v 1.4 3.7 -1.4
v 1.4 4.1 -0.9
v 1.4 4.1 -1.4
v 1.8 7.7 -0.5
v 1.8 7.7 -1.7
v 1.8 8.1 -0.5
v 1.8 8.1 -1.7
v 2 6.2 -0.3
v 2 6.2 -1.9
v 2 7 -0.3
v 2 7 -1.9
v 2 7.7 -0.3
v 2 7.7 -1.9
v 2.1 5.3 -0.2
v 2.1 5.3 -2
v 2.1 6.2 -0.2
v 2.1 6.2 -2
v 2.3 4.1 0
v 2.3 4.1 -2.2
v 2.3 5.3 0
v 2.3 5.3 -2.2
v 0 4.1 0
v 0 5.3 0
v 2.3 4.1 0
v 2.3 5.3 0
v 0.2 5.3 -0.2
v 0.2 6.2 -0.2
v 2.1 5.3 -0.2
v 2.1 6.2 -0.2
v 0.3 6.2 -0.3
v 0.3 7 -0.3
v 0.3 7.7 -0.3
v 2 6.2 -0.3
v 2 7 -0.3
v 2 7.7 -0.3
v 0.5 7.7 -0.5
v 0.5 8.1 -0.5
v 1.8 7.7 -0.5
v 1.8 8.1 -0.5
v 0.9 2.7 -0.9
v 0.9 2.8 -0.9
v 0.9 3.7 -0.9
v 0.9 4.1 -0.9
v 1.4 2.7 -0.9
v 1.4 2.8 -0.9
v 1.4 3.7 -0.9
v 1.4 4.1 -0.9
v 0.9 2.7 -1.4
v 0.9 2.8 -1.4
v 0.9 3.7 -1.4
v 0.9 4.1 -1.4
v 1.4 2.7 -1.4
v 1.4 2.8 -1.4
v 1.4 3.7 -1.4
v 1.4 4.1 -1.4
v 0.5 7.7 -1.7
v 0.5 8.1 -1.7
v 1.8 7.7 -1.7
v 1.8 8.1 -1.7
v 0.3 6.2 -1.9
v 0.3 7 -1.9
v 0.3 7.7 -1.9
v 2 6.2 -1.9
v 2 7 -1.9
v 2 7.7 -1.9
v 0.2 5.3 -2
v 0.2 6.2 -2
v 2.1 5.3 -2
v 2.1 6.2 -2
v 0 4.1 -2.2
v 0 5.3 -2.2
v 2.3 4.1 -2.2
v 2.3 5.3 -2.2
v 0.9 2.7 -0.9
v 1.4 2.7 -0.9
v 0.9 2.7 -1.4
v 1.4 2.7 -1.4
v 0 4.1 0
v 2.3 4.1 0
v 0.9 4.1 -0.9
v 1.4 4.1 -0.9
v 0.9 4.1 -1.4
v 1.4 4.1 -1.4
v 0 4.1 -2.2
v 2.3 4.1 -2.2
v 0 5.3 0
v 2.3 5.3 0
v 0.2 5.3 -0.2
v 2.1 5.3 -0.2
v 0.2 5.3 -2
v 2.1 5.3 -2
v 0 5.3 -2.2
v 2.3 5.3 -2.2
v 0.2 6.2 -0.2
v 2.1 6.2 -0.2
v 0.3 6.2 -0.3
v 2 6.2 -0.3
v 0.3 6.2 -1.9
v 2 6.2 -1.9
v 0.2 6.2 -2
v 2.1 6.2 -2
v 0.3 7.7 -0.3
v 2 7.7 -0.3
v 0.5 7.7 -0.5
v 1.8 7.7 -0.5
v 0.5 7.7 -1.7
v 1.8 7.7 -1.7
v 0.3 7.7 -1.9
v 2 7.7 -1.9
v 0.5 8.1 -0.5
v 1.8 8.1 -0.5
v 0.5 8.1 -1.7
v 1.8 8.1 -1.7

# faces
f 3/4/1 2/4/1 1/4/1
f 4/4/1 2/4/1 3/4/1
f 7/5/1 6/5/1 5/5/1
f 8/5/1 6/5/1 7/5/1
f 11/1/1 10/1/1 9/1/1
f 12/1/1 10/1/1 11/1/1
f 13/6/1 12/6/1 11/6/1
f 14/6/1 12/6/1 13/6/1
f 17/1/1 16/1/1 15/1/1
f 18/1/1 16/1/1 17/1/1
f 21/3/1 20/3/1 19/3/1
f 22/3/1 20/3/1 21/3/1
f 23/2/1 22/2/1 21/2/1
f 24/2/1 22/2/1 23/2/1
f 25/3/1 24/3/1 23/3/1
f 26/3/1 24/3/1 25/3/1
f 27/3/2 28/3/2 29/3/2
f 29/3/2 28/3/2 30/3/2
f 29/2/2 30/2/2 31/2/2
f 31/2/2 30/2/2 32/2/2
f 31/3/2 32/3/2 33/3/2
f 33/3/2 32/3/2 34/3/2
f 35/1/2 36/1/2 37/1/2
f 37/1/2 36/1/2 38/1/2
f 39/1/2 40/1/2 41/1/2
f 41/1/2 40/1/2 42/1/2
f 41/6/2 42/6/2 43/6/2
f 43/6/2 42/6/2 44/6/2
f 45/5/2 46/5/2 47/5/2
f 47/5/2 46/5/2 48/5/2
f 49/4/2 50/4/2 51/4/2
f 51/4/2 50/4/2 52/4/2
f 55/4/3 54/4/3 53/4/3
f 56/4/3 54/4/3 55/4/3
f 59/5/3 58/5/3 57/5/3
f 60/5/3 58/5/3 59/5/3
f 64/1/3 62/1/3 61/1/3
f 65/6/3 63/6/3 62/6/3
f 65/1/3 62/1/3 64/1/3
f 66/6/3 63/6/3 65/6/3
f 69/1/3 68/1/3 67/1/3
f 70/1/3 68/1/3 69/1/3
f 75/3/3 72/3/3 71/3/3
f 76/2/3 73/2/3 72/2/3
f 76/3/3 72/3/3 75/3/3
f 77/3/3 74/3/3 73/3/3
f 77/2/3 73/2/3 76/2/3
f 78/3/3 74/3/3 77/3/3
f 79/3/4 80/3/4 83/3/4
f 80/2/4 81/2/4 84/2/4
f 83/3/4 80/3/4 84/3/4
f 81/3/4 82/3/4 85/3/4
f 84/2/4 81/2/4 85/2/4
f 85/3/4 82/3/4 86/3/4
f 87/1/4 88/1/4 89/1/4
f 89/1/4 88/1/4 90/1/4
f 91/1/4 92/1/4 94/1/4
f 92/6/4 93/6/4 95/6/4
f 94/1/4 92/1/4 95/1/4
f 95/6/4 93/6/4 96/6/4
f 97/5/4 98/5/4 99/5/4
f 99/5/4 98/5/4 100/5/4
f 101/4/4 102/4/4 103/4/4
f 103/4/4 102/4/4 104/4/4
f 107/3/5 106/3/5 105/3/5
f 108/3/5 106/3/5 107/3/5
f 111/4/5 110/4/5 109/4/5
f 112/4/5 110/4/5 111/4/5
f 113/4/5 111/4/5 109/4/5
f 114/4/5 110/4/5 112/4/5
f 115/4/5 113/4/5 109/4/5
f 115/4/5 114/4/5 113/4/5
f 116/4/5 110/4/5 114/4/5
f 116/4/5 114/4/5 115/4/5
f 117/4/6 118/4/6 119/4/6
f 119/4/6 118/4/6 120/4/6
f 117/4/6 119/4/6 121/4/6
f 120/4/6 118/4/6 122/4/6
f 117/4/6 121/4/6 123/4/6
f 121/4/6 122/4/6 123/4/6
f 122/4/6 118/4/6 124/4/6
f 123/4/6 122/4/6 124/4/6
f 125/5/6 126/5/6 127/5/6
f 127/5/6 126/5/6 128/5/6
f 125/5/6 127/5/6 129/5/6
f 128/5/6 126/5/6 130/5/6
f 125/5/6 129/5/6 131/5/6
f 129/5/6 130/5/6 131/5/6
f 130/5/6 126/5/6 132/5/6
f 131/5/6 130/5/6 132/5/6
f 133/6/6 134/6/6 135/6/6
f 135/6/6 134/6/6 136/6/6
f 133/6/6 135/6/6 137/6/6
f 136/6/6 134/6/6 138/6/6
f 133/6/6 137/6/6 139/6/6
f 137/6/6 138/6/6 139/6/6
f 138/6/6 134/6/6 140/6/6
f 139/6/6 138/6/6 140/6/6
f 141/1/6 142/1/6 143/1/6
f 143/1/6 142/1/6 144/1/6
