# MagicaVoxel @ Ephtracy

# group
o 

# material
mtllib Ground_Tree1.mtl
usemtl palette

# normals
vn -1 0 0
vn 1 0 0
vn 0 0 1
vn 0 0 -1
vn 0 -1 0
vn 0 1 0

# texcoords
vt 0.326172 0.5
vt 0.353516 0.5
vt 0.615234 0.5
vt 0.654297 0.5

# verts
v 0 5.6 0
v 0 5.6 -2
v 0 6.6 0
v 0 6.6 -2
v 0 7.5 0
v 0 7.5 -2
v 0 8.3 0
v 0 8.3 -2
v 0 9 0
v 0 9 -2
v 0.2 9 -0.2
v 0.2 9 -1.8
v 0.2 9.4 -0.2
v 0.2 9.4 -1.8
v 0.7 3.2 -0.7
v 0.7 3.2 -1.4
v 0.7 4.1 -0.7
v 0.7 4.1 -1.4
v 0.7 5 -0.7
v 0.7 5 -1.4
v 0.7 5.6 -0.7
v 0.7 5.6 -1.4
v 1.4 3.2 -0.7
v 1.4 3.2 -1.4
v 1.4 4.1 -0.7
v 1.4 4.1 -1.4
v 1.4 5 -0.7
v 1.4 5 -1.4
v 1.4 5.6 -0.7
v 1.4 5.6 -1.4
v 1.9 9 -0.2
v 1.9 9 -1.8
v 1.9 9.4 -0.2
v 1.9 9.4 -1.8
v 2.1 5.6 0
v 2.1 5.6 -2
v 2.1 6.6 0
v 2.1 6.6 -2
v 2.1 7.5 0
v 2.1 7.5 -2
v 2.1 8.3 0
v 2.1 8.3 -2
v 2.1 9 0
v 2.1 9 -2
v 0 5.6 0
v 0 6.6 0
v 0 7.5 0
v 0 8.3 0
v 0 9 0
v 2.1 5.6 0
v 2.1 6.6 0
v 2.1 7.5 0
v 2.1 8.3 0
v 2.1 9 0
v 0.2 9 -0.2
v 0.2 9.4 -0.2
v 1.9 9 -0.2
v 1.9 9.4 -0.2
v 0.7 3.2 -0.7
v 0.7 4.1 -0.7
v 0.7 5 -0.7
v 0.7 5.6 -0.7
v 1.4 3.2 -0.7
v 1.4 4.1 -0.7
v 1.4 5 -0.7
v 1.4 5.6 -0.7
v 0.7 3.2 -1.4
v 0.7 4.1 -1.4
v 0.7 5 -1.4
v 0.7 5.6 -1.4
v 1.4 3.2 -1.4
v 1.4 4.1 -1.4
v 1.4 5 -1.4
v 1.4 5.6 -1.4
v 0.2 9 -1.8
v 0.2 9.4 -1.8
v 1.9 9 -1.8
v 1.9 9.4 -1.8
v 0 5.6 -2
v 0 6.6 -2
v 0 7.5 -2
v 0 8.3 -2
v 0 9 -2
v 2.1 5.6 -2
v 2.1 6.6 -2
v 2.1 7.5 -2
v 2.1 8.3 -2
v 2.1 9 -2
v 0.7 3.2 -0.7
v 1.4 3.2 -0.7
v 0.7 3.2 -1.4
v 1.4 3.2 -1.4
v 0 5.6 0
v 2.1 5.6 0
v 0.7 5.6 -0.7
v 1.4 5.6 -0.7
v 0.7 5.6 -1.4
v 1.4 5.6 -1.4
v 0 5.6 -2
v 2.1 5.6 -2
v 0 9 0
v 2.1 9 0
v 0.2 9 -0.2
v 1.9 9 -0.2
v 0.2 9 -1.8
v 1.9 9 -1.8
v 0 9 -2
v 2.1 9 -2
v 0.2 9.4 -0.2
v 1.9 9.4 -0.2
v 0.2 9.4 -1.8
v 1.9 9.4 -1.8

# faces
f 3/3/1 2/3/1 1/3/1
f 4/3/1 2/3/1 3/3/1
f 5/4/1 4/4/1 3/4/1
f 6/4/1 4/4/1 5/4/1
f 7/3/1 6/3/1 5/3/1
f 8/3/1 6/3/1 7/3/1
f 9/4/1 8/4/1 7/4/1
f 10/4/1 8/4/1 9/4/1
f 13/3/1 12/3/1 11/3/1
f 14/3/1 12/3/1 13/3/1
f 17/1/1 16/1/1 15/1/1
f 18/1/1 16/1/1 17/1/1
f 19/2/1 18/2/1 17/2/1
f 20/2/1 18/2/1 19/2/1
f 21/1/1 20/1/1 19/1/1
f 22/1/1 20/1/1 21/1/1
f 23/1/2 24/1/2 25/1/2
f 25/1/2 24/1/2 26/1/2
f 25/2/2 26/2/2 27/2/2
f 27/2/2 26/2/2 28/2/2
f 27/1/2 28/1/2 29/1/2
f 29/1/2 28/1/2 30/1/2
f 31/3/2 32/3/2 33/3/2
f 33/3/2 32/3/2 34/3/2
f 35/3/2 36/3/2 37/3/2
f 37/3/2 36/3/2 38/3/2
f 37/4/2 38/4/2 39/4/2
f 39/4/2 38/4/2 40/4/2
f 39/3/2 40/3/2 41/3/2
f 41/3/2 40/3/2 42/3/2
f 41/4/2 42/4/2 43/4/2
f 43/4/2 42/4/2 44/4/2
f 50/3/3 46/3/3 45/3/3
f 51/4/3 47/4/3 46/4/3
f 51/3/3 46/3/3 50/3/3
f 52/3/3 48/3/3 47/3/3
f 52/4/3 47/4/3 51/4/3
f 53/4/3 49/4/3 48/4/3
f 53/3/3 48/3/3 52/3/3
f 54/4/3 49/4/3 53/4/3
f 57/3/3 56/3/3 55/3/3
f 58/3/3 56/3/3 57/3/3
f 63/1/3 60/1/3 59/1/3
f 64/2/3 61/2/3 60/2/3
f 64/1/3 60/1/3 63/1/3
f 65/1/3 62/1/3 61/1/3
f 65/2/3 61/2/3 64/2/3
f 66/1/3 62/1/3 65/1/3
f 67/1/4 68/1/4 71/1/4
f 68/2/4 69/2/4 72/2/4
f 71/1/4 68/1/4 72/1/4
f 69/1/4 70/1/4 73/1/4
f 72/2/4 69/2/4 73/2/4
f 73/1/4 70/1/4 74/1/4
f 75/3/4 76/3/4 77/3/4
f 77/3/4 76/3/4 78/3/4
f 79/3/4 80/3/4 84/3/4
f 80/4/4 81/4/4 85/4/4
f 84/3/4 80/3/4 85/3/4
f 81/3/4 82/3/4 86/3/4
f 85/4/4 81/4/4 86/4/4
f 82/4/4 83/4/4 87/4/4
f 86/3/4 82/3/4 87/3/4
f 87/4/4 83/4/4 88/4/4
f 91/1/5 90/1/5 89/1/5
f 92/1/5 90/1/5 91/1/5
f 95/3/5 94/3/5 93/3/5
f 96/3/5 94/3/5 95/3/5
f 97/3/5 95/3/5 93/3/5
f 98/3/5 94/3/5 96/3/5
f 99/3/5 97/3/5 93/3/5
f 99/3/5 98/3/5 97/3/5
f 100/3/5 94/3/5 98/3/5
f 100/3/5 98/3/5 99/3/5
f 101/4/6 102/4/6 103/4/6
f 103/4/6 102/4/6 104/4/6
f 101/4/6 103/4/6 105/4/6
f 104/4/6 102/4/6 106/4/6
f 101/4/6 105/4/6 107/4/6
f 105/4/6 106/4/6 107/4/6
f 106/4/6 102/4/6 108/4/6
f 107/4/6 106/4/6 108/4/6
f 109/3/6 110/3/6 111/3/6
f 111/3/6 110/3/6 112/3/6
