# MagicaVoxel @ Ephtracy

# group
o 

# material
mtllib Ground_Tree5.mtl
usemtl palette

# normals
vn -1 0 0
vn 1 0 0
vn 0 0 1
vn 0 0 -1
vn 0 -1 0
vn 0 1 0

# texcoords
vt 0.208984 0.5
vt 0.248047 0.5
vt 0.541016 0.5
vt 0.642578 0.5
vt 0.654297 0.5
vt 0.810547 0.5

# verts
v 0 5 0.1
v 0 5 -1.9
v 0 6.3 0.1
v 0 6.3 -1.9
v 0 7.4 0.1
v 0 7.4 -1.9
v 0 8.6 0.1
v 0 8.6 -1.9
v 0.8 2.9 -0.7
v 0.8 2.9 -1.2
v 0.8 3.8 -0.7
v 0.8 3.8 -1.2
v 0.8 4.7 -0.7
v 0.8 4.7 -1.2
v 0.8 5 -0.7
v 0.8 5 -1.2
v 1.3 2.9 -0.7
v 1.3 2.9 -1.2
v 1.3 3.8 -0.7
v 1.3 3.8 -1.2
v 1.3 4.7 -0.7
v 1.3 4.7 -1.2
v 1.3 5 -0.7
v 1.3 5 -1.2
v 2.1 5 0.1
v 2.1 5 -1.9
v 2.1 6.3 0.1
v 2.1 6.3 -1.9
v 2.1 7.4 0.1
v 2.1 7.4 -1.9
v 2.1 8.6 0.1
v 2.1 8.6 -1.9
v 0 5 0.1
v 0 6.3 0.1
v 0 7.4 0.1
v 0 8.6 0.1
v 2.1 5 0.1
v 2.1 6.3 0.1
v 2.1 7.4 0.1
v 2.1 8.6 0.1
v 0.8 2.9 -0.7
v 0.8 3.8 -0.7
v 0.8 4.7 -0.7
v 0.8 5 -0.7
v 1.3 2.9 -0.7
v 1.3 3.8 -0.7
v 1.3 4.7 -0.7
v 1.3 5 -0.7
v 0.8 2.9 -1.2
v 0.8 3.8 -1.2
v 0.8 4.7 -1.2
v 0.8 5 -1.2
v 1.3 2.9 -1.2
v 1.3 3.8 -1.2
v 1.3 4.7 -1.2
v 1.3 5 -1.2
v 0 5 -1.9
v 0 6.3 -1.9
v 0 7.4 -1.9
v 0 8.6 -1.9
v 2.1 5 -1.9
v 2.1 6.3 -1.9
v 2.1 7.4 -1.9
v 2.1 8.6 -1.9
v 0.8 2.9 -0.7
v 1.3 2.9 -0.7
v 0.8 2.9 -1.2
v 1.3 2.9 -1.2
v 0 5 0.1
v 2.1 5 0.1
v 0.8 5 -0.7
v 1.3 5 -0.7
v 0.8 5 -1.2
v 1.3 5 -1.2
v 0 5 -1.9
v 2.1 5 -1.9
v 0 8.6 0.1
v 2.1 8.6 0.1
v 0 8.6 -1.9
v 2.1 8.6 -1.9

# faces
f 3/4/1 2/4/1 1/4/1
f 4/4/1 2/4/1 3/4/1
f 5/5/1 4/5/1 3/5/1
f 6/5/1 4/5/1 5/5/1
f 7/6/1 6/6/1 5/6/1
f 8/6/1 6/6/1 7/6/1
f 11/2/1 10/2/1 9/2/1
f 12/2/1 10/2/1 11/2/1
f 13/1/1 12/1/1 11/1/1
f 14/1/1 12/1/1 13/1/1
f 15/2/1 14/2/1 13/2/1
f 16/2/1 14/2/1 15/2/1
f 17/2/2 18/2/2 19/2/2
f 19/2/2 18/2/2 20/2/2
f 19/1/2 20/1/2 21/1/2
f 21/1/2 20/1/2 22/1/2
f 21/2/2 22/2/2 23/2/2
f 23/2/2 22/2/2 24/2/2
f 25/4/2 26/4/2 27/4/2
f 27/4/2 26/4/2 28/4/2
f 27/5/2 28/5/2 29/5/2
f 29/5/2 28/5/2 30/5/2
f 29/6/2 30/6/2 31/6/2
f 31/6/2 30/6/2 32/6/2
f 37/4/3 34/4/3 33/4/3
f 38/5/3 35/5/3 34/5/3
f 38/4/3 34/4/3 37/4/3
f 39/6/3 36/6/3 35/6/3
f 39/5/3 35/5/3 38/5/3
f 40/6/3 36/6/3 39/6/3
f 45/2/3 42/2/3 41/2/3
f 46/1/3 43/1/3 42/1/3
f 46/2/3 42/2/3 45/2/3
f 47/2/3 44/2/3 43/2/3
f 47/1/3 43/1/3 46/1/3
f 48/2/3 44/2/3 47/2/3
f 49/2/4 50/2/4 53/2/4
f 50/1/4 51/1/4 54/1/4
f 53/2/4 50/2/4 54/2/4
f 51/2/4 52/2/4 55/2/4
f 54/1/4 51/1/4 55/1/4
f 55/2/4 52/2/4 56/2/4
f 57/4/4 58/4/4 61/4/4
f 58/5/4 59/5/4 62/5/4
f 61/4/4 58/4/4 62/4/4
f 59/6/4 60/6/4 63/6/4
f 62/5/4 59/5/4 63/5/4
f 63/6/4 60/6/4 64/6/4
f 67/2/5 66/2/5 65/2/5
f 68/2/5 66/2/5 67/2/5
f 71/4/5 70/4/5 69/4/5
f 72/4/5 70/4/5 71/4/5
f 73/4/5 71/4/5 69/4/5
f 74/4/5 70/4/5 72/4/5
f 75/4/5 73/4/5 69/4/5
f 75/4/5 74/4/5 73/4/5
f 76/4/5 70/4/5 74/4/5
f 76/4/5 74/4/5 75/4/5
f 77/6/6 78/6/6 79/6/6
f 79/6/6 78/6/6 80/6/6
